SplineFontDB: 3.0
FontName: Oxanium-Light
FullName: Oxanium Light
FamilyName: Oxanium
Weight: Light
Copyright: Copyright 2019 Severin Meyer, with Reserved Font Name Oxanium
Version: 0.000
ItalicAngle: 0
UnderlinePosition: -75
UnderlineWidth: 50
Ascent: 800
Descent: 200
InvalidEm: 0
LayerCount: 2
Layer: 0 1 "Back" 1
Layer: 1 1 "Fore" 0
StyleMap: 0x0040
FSType: 0
OS2Version: 4
OS2_WeightWidthSlopeOnly: 0
OS2_UseTypoMetrics: 1
CreationTime: 1546300800
ModificationTime: 1551956175
PfmFamily: 33
TTFWeight: 300
TTFWidth: 5
LineGap: 250
VLineGap: 0
OS2TypoAscent: 790
OS2TypoAOffset: 0
OS2TypoDescent: -210
OS2TypoDOffset: 0
OS2TypoLinegap: 250
OS2WinAscent: 1000
OS2WinAOffset: 0
OS2WinDescent: 250
OS2WinDOffset: 0
HheadAscent: 790
HheadAOffset: 0
HheadDescent: -210
HheadDOffset: 0
OS2SubXSize: 620
OS2SubYSize: 600
OS2SubXOff: 0
OS2SubYOff: 124
OS2SupXSize: 620
OS2SupYSize: 600
OS2SupXOff: 0
OS2SupYOff: 400
OS2StrikeYSize: 50
OS2StrikeYPos: 250
OS2CapHeight: 690
OS2XHeight: 518
OS2Vendor: '    '
DEI: 91125
LangName: 1033 "" "" "" "" "" "" "" "" "" "Severin Meyer" "" "" "https://sev.dev/fonts/oxanium" "SIL Open Font License 1.1" "http://scripts.sil.org/OFL" "" "Oxanium" "Light"
Encoding: Custom
UnicodeInterp: none
NameList: AGL For New Fonts
DisplaySize: -48
AntiAlias: 1
FitToEm: 0
WinInfo: 0 32 12
BeginPrivate: 2
BlueValues 41 [-10 0 518 528 690 700 740 750 1000 1010]
OtherBlues 11 [-210 -200]
EndPrivate
BeginChars: 375 375

StartChar: exclam
Encoding: 3 33 3
Width: 255
Flags: W
LayerCount: 2
Fore
SplineSet
86 0 m 1,0,-1
 86 98 l 1,1,-1
 169 98 l 1,2,-1
 169 0 l 1,3,-1
 86 0 l 1,0,-1
94 206 m 1,4,-1
 94 690 l 1,5,-1
 160 690 l 1,6,-1
 160 206 l 1,7,-1
 94 206 l 1,4,-1
EndSplineSet
EndChar

StartChar: numbersign
Encoding: 5 35 5
Width: 668
Flags: W
LayerCount: 2
Fore
SplineSet
50 197 m 1,0,-1
 50 253 l 1,1,-1
 190 253 l 1,2,-1
 190 437 l 1,3,-1
 50 437 l 1,4,-1
 50 493 l 1,5,-1
 190 493 l 1,6,-1
 190 690 l 1,7,-1
 249 690 l 1,8,-1
 249 493 l 1,9,-1
 418 493 l 1,10,-1
 418 690 l 1,11,-1
 477 690 l 1,12,-1
 477 493 l 1,13,-1
 618 493 l 1,14,-1
 618 437 l 1,15,-1
 477 437 l 1,16,-1
 477 253 l 1,17,-1
 618 253 l 1,18,-1
 618 197 l 1,19,-1
 477 197 l 1,20,-1
 477 0 l 1,21,-1
 418 0 l 1,22,-1
 418 197 l 1,23,-1
 249 197 l 1,24,-1
 249 0 l 1,25,-1
 190 0 l 1,26,-1
 190 197 l 1,27,-1
 50 197 l 1,0,-1
249 253 m 1,28,-1
 418 253 l 1,29,-1
 418 437 l 1,30,-1
 249 437 l 1,31,-1
 249 253 l 1,28,-1
EndSplineSet
EndChar

StartChar: dollar
Encoding: 6 36 6
Width: 578
Flags: W
LayerCount: 2
Fore
SplineSet
73 30 m 1,0,-1
 73 60 l 1,1,-1
 360 60 l 2,2,3
 439 60 439 60 439 139 c 2,4,-1
 439 209 l 2,5,6
 439 275 439 275 381 286 c 2,7,-1
 180 326 l 2,8,9
 73 348 73 348 73 470 c 2,10,-1
 73 512 l 2,11,12
 73 660 73 660 221 660 c 2,13,-1
 262 660 l 1,14,-1
 262 780 l 1,15,-1
 316 780 l 1,16,-1
 316 660 l 1,17,-1
 447 660 l 1,18,-1
 485 630 l 1,19,-1
 485 600 l 1,20,-1
 218 600 l 2,21,22
 139 600 139 600 139 521 c 2,23,-1
 139 463 l 2,24,25
 139 397 139 397 197 386 c 2,26,-1
 398 346 l 2,27,28
 505 324 505 324 505 201 c 2,29,-1
 505 148 l 2,30,31
 505 0 505 0 357 0 c 2,32,-1
 316 0 l 1,33,-1
 316 -120 l 1,34,-1
 262 -120 l 1,35,-1
 262 0 l 1,36,-1
 111 0 l 1,37,-1
 73 30 l 1,0,-1
EndSplineSet
EndChar

StartChar: ampersand
Encoding: 8 38 8
Width: 655
Flags: W
LayerCount: 2
Fore
SplineSet
72 146 m 2,0,-1
 72 258 l 2,1,2
 72 310 72 310 105 338 c 2,3,-1
 147 373 l 1,4,-1
 112 415 l 2,5,6
 92 439 92 439 92 473 c 2,7,-1
 92 544 l 2,8,9
 92 690 92 690 239 690 c 2,10,-1
 431 690 l 1,11,-1
 465 664 l 1,12,-1
 465 635 l 1,13,-1
 236 635 l 2,14,15
 155 635 155 635 155 554 c 2,16,-1
 155 475 l 2,17,18
 155 394 155 394 236 394 c 2,19,-1
 615 394 l 1,20,-1
 615 339 l 1,21,-1
 515 339 l 1,22,-1
 515 0 l 1,23,-1
 219 0 l 2,24,25
 72 0 72 0 72 146 c 2,0,-1
135 136 m 2,26,27
 135 55 135 55 216 55 c 2,28,-1
 453 55 l 1,29,-1
 453 339 l 1,30,-1
 216 339 l 2,31,32
 135 339 135 339 135 258 c 2,33,-1
 135 136 l 2,26,27
EndSplineSet
EndChar

StartChar: quotesingle
Encoding: 9 39 9
Width: 204
Flags: W
LayerCount: 2
Fore
SplineSet
72 496 m 1,0,-1
 72 740 l 1,1,-1
 131 740 l 1,2,-1
 131 496 l 1,3,-1
 72 496 l 1,0,-1
EndSplineSet
EndChar

StartChar: parenleft
Encoding: 10 40 10
Width: 299
Flags: W
LayerCount: 2
Fore
SplineSet
72 290 m 128,-1,1
 72 556 72 556 232 767 c 1,2,-1
 278 731 l 1,3,4
 136 535 136 535 136 290 c 128,-1,5
 136 45 136 45 278 -151 c 1,6,-1
 232 -187 l 1,7,0
 72 24 72 24 72 290 c 128,-1,1
EndSplineSet
EndChar

StartChar: parenright
Encoding: 11 41 11
Width: 299
Flags: W
LayerCount: 2
Fore
SplineSet
21 -151 m 1,0,1
 163 45 163 45 163 290 c 128,-1,2
 163 535 163 535 21 731 c 1,3,-1
 67 767 l 1,4,5
 227 556 227 556 227 290 c 128,-1,6
 227 24 227 24 67 -187 c 1,7,-1
 21 -151 l 1,0,1
EndSplineSet
EndChar

StartChar: asterisk
Encoding: 12 42 12
Width: 496
Flags: W
LayerCount: 2
Fore
SplineSet
41 522 m 1,0,-1
 56 567 l 1,1,-1
 222 516 l 1,2,-1
 222 690 l 1,3,-1
 273 690 l 1,4,-1
 273 516 l 1,5,-1
 440 567 l 1,6,-1
 455 522 l 1,7,-1
 290 467 l 1,8,-1
 390 324 l 1,9,-1
 352 297 l 1,10,-1
 248 434 l 1,11,-1
 144 297 l 1,12,-1
 105 324 l 1,13,-1
 205 467 l 1,14,-1
 41 522 l 1,0,-1
EndSplineSet
EndChar

StartChar: plus
Encoding: 13 43 13
Width: 578
Flags: W
LayerCount: 2
Fore
SplineSet
65 307 m 1,0,-1
 65 363 l 1,1,-1
 260 363 l 1,2,-1
 260 570 l 1,3,-1
 318 570 l 1,4,-1
 318 363 l 1,5,-1
 513 363 l 1,6,-1
 513 307 l 1,7,-1
 318 307 l 1,8,-1
 318 100 l 1,9,-1
 260 100 l 1,10,-1
 260 307 l 1,11,-1
 65 307 l 1,0,-1
EndSplineSet
EndChar

StartChar: comma
Encoding: 14 44 14
Width: 255
Flags: W
LayerCount: 2
Fore
SplineSet
35 -125 m 1,0,-1
 88 98 l 1,1,-1
 159 98 l 1,2,-1
 166 86 l 1,3,-1
 83 -137 l 1,4,-1
 35 -125 l 1,0,-1
EndSplineSet
EndChar

StartChar: hyphen
Encoding: 15 45 15
Width: 354
Flags: W
LayerCount: 2
Fore
SplineSet
40 277 m 1,0,-1
 40 333 l 1,1,-1
 314 333 l 1,2,-1
 314 277 l 1,3,-1
 40 277 l 1,0,-1
EndSplineSet
EndChar

StartChar: period
Encoding: 16 46 16
Width: 255
Flags: W
LayerCount: 2
Fore
SplineSet
86 0 m 1,0,-1
 86 98 l 1,1,-1
 169 98 l 1,2,-1
 169 0 l 1,3,-1
 86 0 l 1,0,-1
EndSplineSet
EndChar

StartChar: slash
Encoding: 17 47 17
Width: 376
Flags: W
LayerCount: 2
Fore
SplineSet
20 -28 m 1,0,-1
 301 738 l 1,1,-1
 356 718 l 1,2,-1
 75 -48 l 1,3,-1
 20 -28 l 1,0,-1
EndSplineSet
EndChar

StartChar: zero
Encoding: 18 48 18
Width: 578
Flags: W
LayerCount: 2
Fore
SplineSet
68 148 m 2,0,-1
 68 542 l 2,1,2
 68 690 68 690 216 690 c 2,3,-1
 362 690 l 2,4,5
 510 690 510 690 510 542 c 2,6,-1
 510 148 l 2,7,8
 510 0 510 0 362 0 c 2,9,-1
 216 0 l 2,10,11
 68 0 68 0 68 148 c 2,0,-1
134 139 m 2,12,13
 134 60 134 60 213 60 c 2,14,-1
 365 60 l 2,15,16
 444 60 444 60 444 139 c 2,17,-1
 444 551 l 2,18,19
 444 630 444 630 365 630 c 2,20,-1
 213 630 l 2,21,22
 134 630 134 630 134 551 c 2,23,-1
 134 139 l 2,12,13
EndSplineSet
EndChar

StartChar: one
Encoding: 19 49 19
Width: 578
Flags: W
LayerCount: 2
Fore
SplineSet
96 0 m 1,0,-1
 96 60 l 1,1,-1
 272 60 l 1,2,-1
 272 630 l 1,3,-1
 134 630 l 1,4,-1
 134 660 l 1,5,-1
 172 690 l 1,6,-1
 338 690 l 1,7,-1
 338 60 l 1,8,-1
 498 60 l 1,9,-1
 498 0 l 1,10,-1
 96 0 l 1,0,-1
EndSplineSet
EndChar

StartChar: two
Encoding: 20 50 20
Width: 578
Flags: W
LayerCount: 2
Fore
SplineSet
68 0 m 1,0,-1
 68 206 l 2,1,2
 68 328 68 328 175 350 c 2,3,-1
 386 392 l 2,4,5
 444 403 444 403 444 469 c 2,6,-1
 444 551 l 2,7,8
 444 630 444 630 365 630 c 2,9,-1
 88 630 l 1,10,-1
 88 660 l 1,11,-1
 126 690 l 1,12,-1
 362 690 l 2,13,14
 510 690 510 690 510 542 c 2,15,-1
 510 476 l 2,16,17
 510 354 510 354 403 332 c 2,18,-1
 192 290 l 2,19,20
 134 279 134 279 134 213 c 2,21,-1
 134 60 l 1,22,-1
 510 60 l 1,23,-1
 510 0 l 1,24,-1
 68 0 l 1,0,-1
EndSplineSet
EndChar

StartChar: three
Encoding: 21 51 21
Width: 578
Flags: W
LayerCount: 2
Fore
SplineSet
78 30 m 1,0,-1
 78 60 l 1,1,-1
 365 60 l 2,2,3
 444 60 444 60 444 139 c 2,4,-1
 444 255 l 2,5,6
 444 334 444 334 365 334 c 2,7,-1
 152 334 l 1,8,-1
 152 394 l 1,9,-1
 365 394 l 2,10,11
 444 394 444 394 444 473 c 2,12,-1
 444 551 l 2,13,14
 444 630 444 630 365 630 c 2,15,-1
 88 630 l 1,16,-1
 88 660 l 1,17,-1
 126 690 l 1,18,-1
 362 690 l 2,19,20
 510 690 510 690 510 542 c 2,21,-1
 510 466 l 2,22,23
 510 426 510 426 485 401 c 2,24,-1
 450 366 l 1,25,-1
 485 331 l 2,26,27
 510 306 510 306 510 266 c 2,28,-1
 510 148 l 2,29,30
 510 0 510 0 362 0 c 2,31,-1
 116 0 l 1,32,-1
 78 30 l 1,0,-1
EndSplineSet
EndChar

StartChar: four
Encoding: 22 52 22
Width: 578
Flags: W
LayerCount: 2
Fore
SplineSet
68 137 m 1,0,-1
 68 193 l 1,1,-1
 305 690 l 1,2,-1
 359 690 l 1,3,-1
 368 673 l 1,4,-1
 141 197 l 1,5,-1
 444 197 l 1,6,-1
 444 430 l 1,7,-1
 510 430 l 1,8,-1
 510 0 l 1,9,-1
 444 0 l 1,10,-1
 444 137 l 1,11,-1
 68 137 l 1,0,-1
EndSplineSet
EndChar

StartChar: five
Encoding: 23 53 23
Width: 578
Flags: W
LayerCount: 2
Fore
SplineSet
58 30 m 1,0,-1
 58 60 l 1,1,-1
 365 60 l 2,2,3
 444 60 444 60 444 139 c 2,4,-1
 444 265 l 2,5,6
 444 344 444 344 365 344 c 2,7,-1
 68 344 l 1,8,-1
 68 690 l 1,9,-1
 480 690 l 1,10,-1
 480 630 l 1,11,-1
 134 630 l 1,12,-1
 134 404 l 1,13,-1
 362 404 l 2,14,15
 510 404 510 404 510 256 c 2,16,-1
 510 148 l 2,17,18
 510 0 510 0 362 0 c 2,19,-1
 96 0 l 1,20,-1
 58 30 l 1,0,-1
EndSplineSet
EndChar

StartChar: six
Encoding: 24 54 24
Width: 578
Flags: W
LayerCount: 2
Fore
SplineSet
68 148 m 2,0,-1
 68 511 l 2,1,2
 68 690 68 690 246 690 c 2,3,-1
 432 690 l 1,4,-1
 470 660 l 1,5,-1
 470 630 l 1,6,-1
 242 630 l 2,7,8
 134 630 134 630 134 522 c 2,9,-1
 134 404 l 1,10,-1
 362 404 l 2,11,12
 510 404 510 404 510 256 c 2,13,-1
 510 148 l 2,14,15
 510 0 510 0 362 0 c 2,16,-1
 216 0 l 2,17,18
 68 0 68 0 68 148 c 2,0,-1
134 139 m 2,19,20
 134 60 134 60 213 60 c 2,21,-1
 365 60 l 2,22,23
 444 60 444 60 444 139 c 2,24,-1
 444 265 l 2,25,26
 444 344 444 344 365 344 c 2,27,-1
 134 344 l 1,28,-1
 134 139 l 2,19,20
EndSplineSet
EndChar

StartChar: seven
Encoding: 25 55 25
Width: 578
Flags: W
LayerCount: 2
Fore
SplineSet
68 630 m 1,0,-1
 68 690 l 1,1,-1
 510 690 l 1,2,-1
 510 527 l 1,3,-1
 234 0 l 1,4,-1
 175 0 l 1,5,-1
 166 17 l 1,6,-1
 444 543 l 1,7,-1
 444 630 l 1,8,-1
 68 630 l 1,0,-1
EndSplineSet
EndChar

StartChar: eight
Encoding: 26 56 26
Width: 578
Flags: W
LayerCount: 2
Fore
SplineSet
68 148 m 2,0,-1
 68 266 l 2,1,2
 68 306 68 306 93 331 c 2,3,-1
 128 366 l 1,4,-1
 93 401 l 2,5,6
 68 426 68 426 68 466 c 2,7,-1
 68 542 l 2,8,9
 68 690 68 690 216 690 c 2,10,-1
 362 690 l 2,11,12
 510 690 510 690 510 542 c 2,13,-1
 510 466 l 2,14,15
 510 426 510 426 485 401 c 2,16,-1
 450 366 l 1,17,-1
 485 331 l 2,18,19
 510 306 510 306 510 266 c 2,20,-1
 510 148 l 2,21,22
 510 0 510 0 362 0 c 2,23,-1
 216 0 l 2,24,25
 68 0 68 0 68 148 c 2,0,-1
134 139 m 2,26,27
 134 60 134 60 213 60 c 2,28,-1
 365 60 l 2,29,30
 444 60 444 60 444 139 c 2,31,-1
 444 255 l 2,32,33
 444 334 444 334 365 334 c 2,34,-1
 213 334 l 2,35,36
 134 334 134 334 134 255 c 2,37,-1
 134 139 l 2,26,27
134 473 m 2,38,39
 134 394 134 394 213 394 c 2,40,-1
 365 394 l 2,41,42
 444 394 444 394 444 473 c 2,43,-1
 444 551 l 2,44,45
 444 630 444 630 365 630 c 2,46,-1
 213 630 l 2,47,48
 134 630 134 630 134 551 c 2,49,-1
 134 473 l 2,38,39
EndSplineSet
EndChar

StartChar: nine
Encoding: 27 57 27
Width: 578
Flags: W
LayerCount: 2
Fore
SplineSet
68 435 m 2,0,-1
 68 542 l 2,1,2
 68 690 68 690 216 690 c 2,3,-1
 362 690 l 2,4,5
 510 690 510 690 510 542 c 2,6,-1
 510 179 l 2,7,8
 510 0 510 0 332 0 c 2,9,-1
 136 0 l 1,10,-1
 98 30 l 1,11,-1
 98 60 l 1,12,-1
 336 60 l 2,13,14
 444 60 444 60 444 168 c 2,15,-1
 444 286 l 1,16,-1
 216 286 l 2,17,18
 68 286 68 286 68 435 c 2,0,-1
134 425 m 2,19,20
 134 346 134 346 213 346 c 2,21,-1
 444 346 l 1,22,-1
 444 551 l 2,23,24
 444 630 444 630 365 630 c 2,25,-1
 213 630 l 2,26,27
 134 630 134 630 134 551 c 2,28,-1
 134 425 l 2,19,20
EndSplineSet
EndChar

StartChar: less
Encoding: 30 60 30
Width: 578
Flags: W
LayerCount: 2
Fore
SplineSet
64 304 m 1,0,-1
 64 366 l 1,1,-1
 487 569 l 1,2,-1
 511 518 l 1,3,-1
 120 335 l 1,4,-1
 511 152 l 1,5,-1
 487 101 l 1,6,-1
 64 304 l 1,0,-1
EndSplineSet
EndChar

StartChar: equal
Encoding: 31 61 31
Width: 578
Flags: W
LayerCount: 2
Fore
SplineSet
65 197 m 1,0,-1
 65 253 l 1,1,-1
 513 253 l 1,2,-1
 513 197 l 1,3,-1
 65 197 l 1,0,-1
65 417 m 1,4,-1
 65 473 l 1,5,-1
 513 473 l 1,6,-1
 513 417 l 1,7,-1
 65 417 l 1,4,-1
EndSplineSet
EndChar

StartChar: greater
Encoding: 32 62 32
Width: 578
Flags: W
LayerCount: 2
Fore
SplineSet
67 152 m 1,0,-1
 458 335 l 1,1,-1
 67 518 l 1,2,-1
 91 569 l 1,3,-1
 514 366 l 1,4,-1
 514 304 l 1,5,-1
 91 101 l 1,6,-1
 67 152 l 1,0,-1
EndSplineSet
EndChar

StartChar: question
Encoding: 33 63 33
Width: 493
Flags: W
LayerCount: 2
Fore
SplineSet
40 630 m 1,0,-1
 40 660 l 1,1,-1
 78 690 l 1,2,-1
 294 690 l 2,3,4
 443 690 443 690 443 542 c 2,5,-1
 443 450 l 2,6,7
 443 301 443 301 294 301 c 2,8,-1
 241 301 l 1,9,-1
 241 206 l 1,10,-1
 175 206 l 1,11,-1
 175 361 l 1,12,-1
 297 361 l 2,13,14
 377 361 377 361 377 440 c 2,15,-1
 377 551 l 2,16,17
 377 630 377 630 297 630 c 2,18,-1
 40 630 l 1,0,-1
167 0 m 1,19,-1
 167 98 l 1,20,-1
 250 98 l 1,21,-1
 250 0 l 1,22,-1
 167 0 l 1,19,-1
EndSplineSet
EndChar

StartChar: at
Encoding: 34 64 34
Width: 798
Flags: W
LayerCount: 2
Fore
SplineSet
92 4 m 2,0,-1
 92 546 l 2,1,2
 92 690 92 690 237 690 c 2,3,-1
 705 690 l 1,4,-1
 705 60 l 1,5,-1
 459 60 l 2,6,7
 312 60 312 60 312 206 c 2,8,-1
 312 344 l 2,9,10
 312 490 312 490 459 490 c 2,11,-1
 646 490 l 1,12,-1
 646 639 l 1,13,-1
 236 639 l 2,14,15
 151 639 151 639 151 555 c 2,16,-1
 151 -5 l 2,17,18
 151 -89 151 -89 236 -89 c 2,19,-1
 685 -89 l 1,20,-1
 685 -114 l 1,21,-1
 651 -140 l 1,22,-1
 237 -140 l 2,23,24
 92 -140 92 -140 92 4 c 2,0,-1
375 196 m 2,25,26
 375 115 375 115 456 115 c 2,27,-1
 643 115 l 1,28,-1
 643 435 l 1,29,-1
 456 435 l 2,30,31
 375 435 375 435 375 354 c 2,32,-1
 375 196 l 2,25,26
EndSplineSet
EndChar

StartChar: A
Encoding: 35 65 35
Width: 619
Flags: W
LayerCount: 2
Fore
SplineSet
21 15 m 1,0,-1
 253 690 l 1,1,-1
 366 690 l 1,2,-1
 599 15 l 1,3,-1
 588 0 l 1,4,-1
 535 0 l 1,5,-1
 473 184 l 1,6,-1
 146 184 l 1,7,-1
 84 0 l 1,8,-1
 31 0 l 1,9,-1
 21 15 l 1,0,-1
167 244 m 1,10,-1
 452 244 l 1,11,-1
 323 630 l 1,12,-1
 296 630 l 1,13,-1
 167 244 l 1,10,-1
EndSplineSet
EndChar

StartChar: B
Encoding: 36 66 36
Width: 642
Flags: W
LayerCount: 2
Fore
SplineSet
92 0 m 1,0,-1
 92 690 l 1,1,-1
 407 690 l 2,2,3
 555 690 555 690 555 542 c 2,4,-1
 555 470 l 2,5,6
 555 436 555 436 535 412 c 2,7,-1
 500 370 l 1,8,-1
 542 335 l 2,9,10
 575 308 575 308 575 255 c 2,11,-1
 575 148 l 2,12,13
 575 0 575 0 427 0 c 2,14,-1
 92 0 l 1,0,-1
158 60 m 1,15,-1
 430 60 l 2,16,17
 509 60 509 60 509 139 c 2,18,-1
 509 255 l 2,19,20
 509 334 509 334 430 334 c 2,21,-1
 158 334 l 1,22,-1
 158 60 l 1,15,-1
158 394 m 1,23,-1
 410 394 l 2,24,25
 489 394 489 394 489 473 c 2,26,-1
 489 551 l 2,27,28
 489 630 489 630 410 630 c 2,29,-1
 158 630 l 1,30,-1
 158 394 l 1,23,-1
EndSplineSet
EndChar

StartChar: C
Encoding: 37 67 37
Width: 606
Flags: W
LayerCount: 2
Fore
SplineSet
82 148 m 2,0,-1
 82 542 l 2,1,2
 82 690 82 690 231 690 c 2,3,-1
 517 690 l 1,4,-1
 556 660 l 1,5,-1
 556 630 l 1,6,-1
 228 630 l 2,7,8
 148 630 148 630 148 551 c 2,9,-1
 148 139 l 2,10,11
 148 60 148 60 228 60 c 2,12,-1
 556 60 l 1,13,-1
 556 30 l 1,14,-1
 517 0 l 1,15,-1
 231 0 l 2,16,17
 82 0 82 0 82 148 c 2,0,-1
EndSplineSet
EndChar

StartChar: D
Encoding: 38 68 38
Width: 678
Flags: W
LayerCount: 2
Fore
SplineSet
92 0 m 1,0,-1
 92 690 l 1,1,-1
 365 690 l 2,2,3
 605 690 605 690 605 450 c 2,4,-1
 605 240 l 2,5,6
 605 0 605 0 365 0 c 2,7,-1
 92 0 l 1,0,-1
158 60 m 1,8,-1
 369 60 l 2,9,10
 539 60 539 60 539 230 c 2,11,-1
 539 460 l 2,12,13
 539 630 539 630 369 630 c 2,14,-1
 158 630 l 1,15,-1
 158 60 l 1,8,-1
EndSplineSet
EndChar

StartChar: E
Encoding: 39 69 39
Width: 586
Flags: W
LayerCount: 2
Fore
SplineSet
92 0 m 1,0,-1
 92 690 l 1,1,-1
 536 690 l 1,2,-1
 536 630 l 1,3,-1
 158 630 l 1,4,-1
 158 394 l 1,5,-1
 506 394 l 1,6,-1
 506 334 l 1,7,-1
 158 334 l 1,8,-1
 158 60 l 1,9,-1
 536 60 l 1,10,-1
 536 0 l 1,11,-1
 92 0 l 1,0,-1
EndSplineSet
EndChar

StartChar: F
Encoding: 40 70 40
Width: 566
Flags: W
LayerCount: 2
Fore
SplineSet
92 0 m 1,0,-1
 92 690 l 1,1,-1
 536 690 l 1,2,-1
 536 630 l 1,3,-1
 158 630 l 1,4,-1
 158 364 l 1,5,-1
 506 364 l 1,6,-1
 506 304 l 1,7,-1
 158 304 l 1,8,-1
 158 0 l 1,9,-1
 92 0 l 1,0,-1
EndSplineSet
EndChar

StartChar: G
Encoding: 41 71 41
Width: 668
Flags: W
LayerCount: 2
Fore
SplineSet
82 148 m 2,0,-1
 82 542 l 2,1,2
 82 690 82 690 231 690 c 2,3,-1
 537 690 l 1,4,-1
 575 660 l 1,5,-1
 575 630 l 1,6,-1
 228 630 l 2,7,8
 148 630 148 630 148 551 c 2,9,-1
 148 139 l 2,10,11
 148 60 148 60 228 60 c 2,12,-1
 529 60 l 1,13,-1
 529 334 l 1,14,-1
 348 334 l 1,15,-1
 348 394 l 1,16,-1
 595 394 l 1,17,-1
 595 0 l 1,18,-1
 231 0 l 2,19,20
 82 0 82 0 82 148 c 2,0,-1
EndSplineSet
EndChar

StartChar: H
Encoding: 42 72 42
Width: 698
Flags: W
LayerCount: 2
Fore
SplineSet
92 0 m 1,0,-1
 92 690 l 1,1,-1
 158 690 l 1,2,-1
 158 394 l 1,3,-1
 539 394 l 1,4,-1
 539 690 l 1,5,-1
 605 690 l 1,6,-1
 605 0 l 1,7,-1
 539 0 l 1,8,-1
 539 334 l 1,9,-1
 158 334 l 1,10,-1
 158 0 l 1,11,-1
 92 0 l 1,0,-1
EndSplineSet
EndChar

StartChar: I
Encoding: 43 73 43
Width: 251
Flags: W
LayerCount: 2
Fore
SplineSet
92 0 m 1,0,-1
 92 690 l 1,1,-1
 158 690 l 1,2,-1
 158 0 l 1,3,-1
 92 0 l 1,0,-1
EndSplineSet
EndChar

StartChar: J
Encoding: 44 74 44
Width: 602
Flags: W
LayerCount: 2
Fore
SplineSet
62 148 m 2,0,-1
 62 248 l 1,1,-1
 128 248 l 1,2,-1
 128 139 l 2,3,4
 128 60 128 60 208 60 c 2,5,-1
 370 60 l 2,6,7
 449 60 449 60 449 139 c 2,8,-1
 449 630 l 1,9,-1
 212 630 l 1,10,-1
 212 690 l 1,11,-1
 515 690 l 1,12,-1
 515 148 l 2,13,14
 515 0 515 0 367 0 c 2,15,-1
 211 0 l 2,16,17
 62 0 62 0 62 148 c 2,0,-1
EndSplineSet
EndChar

StartChar: K
Encoding: 45 75 45
Width: 617
Flags: W
LayerCount: 2
Fore
SplineSet
92 0 m 1,0,-1
 92 690 l 1,1,-1
 158 690 l 1,2,-1
 158 312 l 1,3,-1
 497 690 l 1,4,-1
 557 690 l 1,5,-1
 564 674 l 1,6,-1
 324 406 l 1,7,-1
 587 16 l 1,8,-1
 579 0 l 1,9,-1
 519 0 l 1,10,-1
 280 358 l 1,11,-1
 158 224 l 1,12,-1
 158 0 l 1,13,-1
 92 0 l 1,0,-1
EndSplineSet
EndChar

StartChar: L
Encoding: 46 76 46
Width: 530
Flags: W
LayerCount: 2
Fore
SplineSet
92 0 m 1,0,-1
 92 690 l 1,1,-1
 158 690 l 1,2,-1
 158 60 l 1,3,-1
 506 60 l 1,4,-1
 506 0 l 1,5,-1
 92 0 l 1,0,-1
EndSplineSet
EndChar

StartChar: M
Encoding: 47 77 47
Width: 862
Flags: W
LayerCount: 2
Fore
SplineSet
92 0 m 1,0,-1
 92 690 l 1,1,-1
 185 690 l 1,2,-1
 431 168 l 1,3,-1
 676 690 l 1,4,-1
 769 690 l 1,5,-1
 769 0 l 1,6,-1
 703 0 l 1,7,-1
 703 602 l 1,8,-1
 468 103 l 1,9,-1
 393 103 l 1,10,-1
 158 602 l 1,11,-1
 158 0 l 1,12,-1
 92 0 l 1,0,-1
EndSplineSet
EndChar

StartChar: N
Encoding: 48 78 48
Width: 715
Flags: W
LayerCount: 2
Fore
SplineSet
92 0 m 1,0,-1
 92 690 l 1,1,-1
 166 690 l 1,2,-1
 556 98 l 1,3,-1
 556 690 l 1,4,-1
 622 690 l 1,5,-1
 622 0 l 1,6,-1
 548 0 l 1,7,-1
 158 592 l 1,8,-1
 158 0 l 1,9,-1
 92 0 l 1,0,-1
EndSplineSet
EndChar

StartChar: O
Encoding: 49 79 49
Width: 698
Flags: W
LayerCount: 2
Fore
SplineSet
82 148 m 2,0,-1
 82 542 l 2,1,2
 82 690 82 690 231 690 c 2,3,-1
 467 690 l 2,4,5
 615 690 615 690 615 542 c 2,6,-1
 615 148 l 2,7,8
 615 0 615 0 467 0 c 2,9,-1
 231 0 l 2,10,11
 82 0 82 0 82 148 c 2,0,-1
148 139 m 2,12,13
 148 60 148 60 228 60 c 2,14,-1
 470 60 l 2,15,16
 549 60 549 60 549 139 c 2,17,-1
 549 551 l 2,18,19
 549 630 549 630 470 630 c 2,20,-1
 228 630 l 2,21,22
 148 630 148 630 148 551 c 2,23,-1
 148 139 l 2,12,13
EndSplineSet
EndChar

StartChar: P
Encoding: 50 80 50
Width: 628
Flags: W
LayerCount: 2
Fore
SplineSet
92 0 m 1,0,-1
 92 690 l 1,1,-1
 417 690 l 2,2,3
 565 690 565 690 565 542 c 2,4,-1
 565 413 l 2,5,6
 565 264 565 264 417 264 c 2,7,-1
 158 264 l 1,8,-1
 158 0 l 1,9,-1
 92 0 l 1,0,-1
158 324 m 1,10,-1
 420 324 l 2,11,12
 499 324 499 324 499 403 c 2,13,-1
 499 551 l 2,14,15
 499 630 499 630 420 630 c 2,16,-1
 158 630 l 1,17,-1
 158 324 l 1,10,-1
EndSplineSet
EndChar

StartChar: Q
Encoding: 51 81 51
Width: 698
Flags: W
LayerCount: 2
Fore
SplineSet
82 148 m 2,0,-1
 82 542 l 2,1,2
 82 690 82 690 231 690 c 2,3,-1
 467 690 l 2,4,5
 615 690 615 690 615 542 c 2,6,-1
 615 148 l 2,7,8
 615 7 615 7 480 0 c 1,9,-1
 548 -133 l 1,10,-1
 538 -150 l 1,11,-1
 483 -150 l 1,12,-1
 407 0 l 1,13,-1
 231 0 l 2,14,15
 82 0 82 0 82 148 c 2,0,-1
148 139 m 2,16,17
 148 60 148 60 228 60 c 2,18,-1
 470 60 l 2,19,20
 549 60 549 60 549 139 c 2,21,-1
 549 551 l 2,22,23
 549 630 549 630 470 630 c 2,24,-1
 228 630 l 2,25,26
 148 630 148 630 148 551 c 2,27,-1
 148 139 l 2,16,17
EndSplineSet
EndChar

StartChar: R
Encoding: 52 82 52
Width: 638
Flags: W
LayerCount: 2
Fore
SplineSet
92 0 m 1,0,-1
 92 690 l 1,1,-1
 417 690 l 2,2,3
 565 690 565 690 565 542 c 2,4,-1
 565 433 l 2,5,6
 565 301 565 301 448 286 c 1,7,-1
 585 17 l 1,8,-1
 576 0 l 1,9,-1
 521 0 l 1,10,-1
 377 284 l 1,11,-1
 158 284 l 1,12,-1
 158 0 l 1,13,-1
 92 0 l 1,0,-1
158 344 m 1,14,-1
 420 344 l 2,15,16
 499 344 499 344 499 423 c 2,17,-1
 499 551 l 2,18,19
 499 630 499 630 420 630 c 2,20,-1
 158 630 l 1,21,-1
 158 344 l 1,14,-1
EndSplineSet
EndChar

StartChar: S
Encoding: 53 83 53
Width: 578
Flags: W
LayerCount: 2
Fore
SplineSet
62 30 m 1,0,-1
 62 60 l 1,1,-1
 370 60 l 2,2,3
 449 60 449 60 449 139 c 2,4,-1
 449 224 l 2,5,6
 449 290 449 290 390 301 c 2,7,-1
 169 345 l 2,8,9
 62 367 62 367 62 489 c 2,10,-1
 62 542 l 2,11,12
 62 690 62 690 211 690 c 2,13,-1
 457 690 l 1,14,-1
 495 660 l 1,15,-1
 495 630 l 1,16,-1
 208 630 l 2,17,18
 128 630 128 630 128 551 c 2,19,-1
 128 482 l 2,20,21
 128 416 128 416 187 405 c 2,22,-1
 408 360 l 2,23,24
 515 339 515 339 515 216 c 2,25,-1
 515 148 l 2,26,27
 515 0 515 0 367 0 c 2,28,-1
 101 0 l 1,29,-1
 62 30 l 1,0,-1
EndSplineSet
EndChar

StartChar: T
Encoding: 54 84 54
Width: 586
Flags: W
LayerCount: 2
Fore
SplineSet
24 630 m 1,0,-1
 24 690 l 1,1,-1
 562 690 l 1,2,-1
 562 630 l 1,3,-1
 326 630 l 1,4,-1
 326 0 l 1,5,-1
 260 0 l 1,6,-1
 260 630 l 1,7,-1
 24 630 l 1,0,-1
EndSplineSet
EndChar

StartChar: U
Encoding: 55 85 55
Width: 686
Flags: W
LayerCount: 2
Fore
SplineSet
86 148 m 2,0,-1
 86 690 l 1,1,-1
 152 690 l 1,2,-1
 152 139 l 2,3,4
 152 60 152 60 232 60 c 2,5,-1
 454 60 l 2,6,7
 533 60 533 60 533 139 c 2,8,-1
 533 690 l 1,9,-1
 599 690 l 1,10,-1
 599 148 l 2,11,12
 599 0 599 0 451 0 c 2,13,-1
 235 0 l 2,14,15
 86 0 86 0 86 148 c 2,0,-1
EndSplineSet
EndChar

StartChar: V
Encoding: 56 86 56
Width: 609
Flags: W
LayerCount: 2
Fore
SplineSet
21 675 m 1,0,-1
 31 690 l 1,1,-1
 85 690 l 1,2,-1
 291 60 l 1,3,-1
 318 60 l 1,4,-1
 524 690 l 1,5,-1
 578 690 l 1,6,-1
 589 675 l 1,7,-1
 364 0 l 1,8,-1
 245 0 l 1,9,-1
 21 675 l 1,0,-1
EndSplineSet
EndChar

StartChar: W
Encoding: 57 87 57
Width: 909
Flags: W
LayerCount: 2
Fore
SplineSet
31 675 m 1,0,-1
 42 690 l 1,1,-1
 93 690 l 1,2,-1
 247 60 l 1,3,-1
 261 60 l 1,4,-1
 421 611 l 1,5,-1
 488 611 l 1,6,-1
 648 60 l 1,7,-1
 662 60 l 1,8,-1
 816 690 l 1,9,-1
 868 690 l 1,10,-1
 879 675 l 1,11,-1
 712 0 l 1,12,-1
 599 0 l 1,13,-1
 455 513 l 1,14,-1
 310 0 l 1,15,-1
 197 0 l 1,16,-1
 31 675 l 1,0,-1
EndSplineSet
EndChar

StartChar: X
Encoding: 58 88 58
Width: 599
Flags: W
LayerCount: 2
Fore
SplineSet
31 16 m 1,0,-1
 262 355 l 1,1,-1
 44 674 l 1,2,-1
 51 690 l 1,3,-1
 108 690 l 1,4,-1
 300 405 l 1,5,-1
 491 690 l 1,6,-1
 548 690 l 1,7,-1
 556 674 l 1,8,-1
 337 355 l 1,9,-1
 569 16 l 1,10,-1
 561 0 l 1,11,-1
 504 0 l 1,12,-1
 300 305 l 1,13,-1
 95 0 l 1,14,-1
 38 0 l 1,15,-1
 31 16 l 1,0,-1
EndSplineSet
EndChar

StartChar: Y
Encoding: 59 89 59
Width: 569
Flags: W
LayerCount: 2
Fore
SplineSet
21 675 m 1,0,-1
 30 690 l 1,1,-1
 85 690 l 1,2,-1
 285 324 l 1,3,-1
 484 690 l 1,4,-1
 539 690 l 1,5,-1
 549 675 l 1,6,-1
 318 260 l 1,7,-1
 318 0 l 1,8,-1
 252 0 l 1,9,-1
 252 260 l 1,10,-1
 21 675 l 1,0,-1
EndSplineSet
EndChar

StartChar: Z
Encoding: 60 90 60
Width: 598
Flags: W
LayerCount: 2
Fore
SplineSet
52 0 m 1,0,-1
 52 54 l 1,1,-1
 455 630 l 1,2,-1
 62 630 l 1,3,-1
 62 690 l 1,4,-1
 535 690 l 1,5,-1
 535 636 l 1,6,-1
 133 60 l 1,7,-1
 545 60 l 1,8,-1
 545 0 l 1,9,-1
 52 0 l 1,0,-1
EndSplineSet
EndChar

StartChar: bracketleft
Encoding: 61 91 61
Width: 327
Flags: W
LayerCount: 2
Fore
SplineSet
92 -180 m 1,0,-1
 92 760 l 1,1,-1
 297 760 l 1,2,-1
 297 705 l 1,3,-1
 155 705 l 1,4,-1
 155 -125 l 1,5,-1
 297 -125 l 1,6,-1
 297 -180 l 1,7,-1
 92 -180 l 1,0,-1
EndSplineSet
EndChar

StartChar: backslash
Encoding: 62 92 62
Width: 376
Flags: W
LayerCount: 2
Fore
SplineSet
20 718 m 1,0,-1
 75 738 l 1,1,-1
 356 -28 l 1,2,-1
 301 -48 l 1,3,-1
 20 718 l 1,0,-1
EndSplineSet
EndChar

StartChar: bracketright
Encoding: 63 93 63
Width: 327
Flags: W
LayerCount: 2
Fore
SplineSet
30 -125 m 1,0,-1
 172 -125 l 1,1,-1
 172 705 l 1,2,-1
 30 705 l 1,3,-1
 30 760 l 1,4,-1
 235 760 l 1,5,-1
 235 -180 l 1,6,-1
 30 -180 l 1,7,-1
 30 -125 l 1,0,-1
EndSplineSet
EndChar

StartChar: asciicircum
Encoding: 64 94 64
Width: 533
Flags: W
LayerCount: 2
Fore
SplineSet
42 342 m 1,0,-1
 236 690 l 1,1,-1
 297 690 l 1,2,-1
 490 342 l 1,3,-1
 440 314 l 1,4,-1
 266 630 l 1,5,-1
 93 314 l 1,6,-1
 42 342 l 1,0,-1
EndSplineSet
EndChar

StartChar: underscore
Encoding: 65 95 65
Width: 580
Flags: W
LayerCount: 2
Fore
SplineSet
40 -144 m 1,0,-1
 540 -144 l 1,1,-1
 540 -200 l 1,2,-1
 40 -200 l 1,3,-1
 40 -144 l 1,0,-1
EndSplineSet
EndChar

StartChar: a
Encoding: 67 97 67
Width: 540
Flags: W
LayerCount: 2
Fore
SplineSet
202 0 m 2,0,1
 54 0 54 0 54 148 c 128,-1,2
 54 296 54 296 202 296 c 2,3,-1
 399 296 l 1,4,-1
 399 381 l 2,5,6
 399 463 399 463 317 463 c 2,7,-1
 103 463 l 1,8,-1
 103 492 l 1,9,-1
 137 518 l 1,10,-1
 315 518 l 2,11,12
 461 518 461 518 461 371 c 2,13,-1
 461 0 l 1,14,-1
 202 0 l 2,0,1
117 136 m 2,15,16
 117 55 117 55 198 55 c 2,17,-1
 399 55 l 1,18,-1
 399 241 l 1,19,-1
 198 241 l 2,20,21
 117 241 117 241 117 159 c 2,22,-1
 117 136 l 2,15,16
EndSplineSet
EndChar

StartChar: b
Encoding: 68 98 68
Width: 580
Flags: W
LayerCount: 2
Fore
SplineSet
82 0 m 1,0,-1
 82 740 l 1,1,-1
 145 740 l 1,2,-1
 145 518 l 1,3,-1
 359 518 l 2,4,5
 505 518 505 518 505 371 c 2,6,-1
 505 146 l 2,7,8
 505 0 505 0 359 0 c 2,9,-1
 82 0 l 1,0,-1
145 55 m 1,10,-1
 361 55 l 2,11,12
 443 55 443 55 443 136 c 2,13,-1
 443 381 l 2,14,15
 443 463 443 463 361 463 c 2,16,-1
 145 463 l 1,17,-1
 145 55 l 1,10,-1
EndSplineSet
EndChar

StartChar: c
Encoding: 69 99 69
Width: 500
Flags: W
LayerCount: 2
Fore
SplineSet
74 146 m 2,0,-1
 74 371 l 2,1,2
 74 518 74 518 221 518 c 2,3,-1
 420 518 l 1,4,-1
 454 492 l 1,5,-1
 454 463 l 1,6,-1
 218 463 l 2,7,8
 137 463 137 463 137 381 c 2,9,-1
 137 136 l 2,10,11
 137 55 137 55 218 55 c 2,12,-1
 454 55 l 1,13,-1
 454 26 l 1,14,-1
 420 0 l 1,15,-1
 221 0 l 2,16,17
 74 0 74 0 74 146 c 2,0,-1
EndSplineSet
EndChar

StartChar: d
Encoding: 70 100 70
Width: 580
Flags: W
LayerCount: 2
Fore
SplineSet
74 146 m 2,0,-1
 74 371 l 2,1,2
 74 518 74 518 221 518 c 2,3,-1
 435 518 l 1,4,-1
 435 740 l 1,5,-1
 497 740 l 1,6,-1
 497 0 l 1,7,-1
 221 0 l 2,8,9
 74 0 74 0 74 146 c 2,0,-1
137 136 m 2,10,11
 137 55 137 55 218 55 c 2,12,-1
 435 55 l 1,13,-1
 435 463 l 1,14,-1
 218 463 l 2,15,16
 137 463 137 463 137 381 c 2,17,-1
 137 136 l 2,10,11
EndSplineSet
EndChar

StartChar: e
Encoding: 71 101 71
Width: 572
Flags: W
LayerCount: 2
Fore
SplineSet
74 146 m 2,0,-1
 74 371 l 2,1,2
 74 518 74 518 221 518 c 2,3,-1
 351 518 l 2,4,5
 497 518 497 518 497 371 c 2,6,-1
 497 232 l 1,7,-1
 137 232 l 1,8,-1
 137 136 l 2,9,10
 137 55 137 55 218 55 c 2,11,-1
 477 55 l 1,12,-1
 477 26 l 1,13,-1
 443 0 l 1,14,-1
 221 0 l 2,15,16
 74 0 74 0 74 146 c 2,0,-1
137 287 m 1,17,-1
 435 287 l 1,18,-1
 435 381 l 2,19,20
 435 463 435 463 353 463 c 2,21,-1
 218 463 l 2,22,23
 137 463 137 463 137 381 c 2,24,-1
 137 287 l 1,17,-1
EndSplineSet
EndChar

StartChar: f
Encoding: 72 102 72
Width: 370
Flags: W
LayerCount: 2
Fore
SplineSet
82 0 m 1,0,-1
 82 594 l 2,1,2
 82 740 82 740 229 740 c 2,3,-1
 316 740 l 1,4,-1
 350 714 l 1,5,-1
 350 685 l 1,6,-1
 226 685 l 2,7,8
 145 685 145 685 145 604 c 2,9,-1
 145 518 l 1,10,-1
 340 518 l 1,11,-1
 340 463 l 1,12,-1
 145 463 l 1,13,-1
 145 0 l 1,14,-1
 82 0 l 1,0,-1
EndSplineSet
EndChar

StartChar: g
Encoding: 73 103 73
Width: 582
Flags: W
LayerCount: 2
Fore
SplineSet
76 146 m 2,0,-1
 76 371 l 2,1,2
 76 518 76 518 222 518 c 2,3,-1
 498 518 l 1,4,-1
 498 -54 l 2,5,6
 498 -200 498 -200 352 -200 c 2,7,-1
 148 -200 l 1,8,-1
 114 -174 l 1,9,-1
 114 -145 l 1,10,-1
 354 -145 l 2,11,12
 436 -145 436 -145 436 -64 c 2,13,-1
 436 0 l 1,14,-1
 222 0 l 2,15,16
 76 0 76 0 76 146 c 2,0,-1
138 136 m 2,17,18
 138 55 138 55 220 55 c 2,19,-1
 436 55 l 1,20,-1
 436 463 l 1,21,-1
 220 463 l 2,22,23
 138 463 138 463 138 381 c 2,24,-1
 138 136 l 2,17,18
EndSplineSet
EndChar

StartChar: h
Encoding: 74 104 74
Width: 584
Flags: W
LayerCount: 2
Fore
SplineSet
82 0 m 1,0,-1
 82 740 l 1,1,-1
 145 740 l 1,2,-1
 145 518 l 1,3,-1
 359 518 l 2,4,5
 505 518 505 518 505 371 c 2,6,-1
 505 0 l 1,7,-1
 443 0 l 1,8,-1
 443 381 l 2,9,10
 443 463 443 463 361 463 c 2,11,-1
 145 463 l 1,12,-1
 145 0 l 1,13,-1
 82 0 l 1,0,-1
EndSplineSet
EndChar

StartChar: i
Encoding: 75 105 75
Width: 227
Flags: W
LayerCount: 2
Fore
SplineSet
79 614 m 1,0,-1
 79 694 l 1,1,-1
 148 694 l 1,2,-1
 148 614 l 1,3,-1
 79 614 l 1,0,-1
82 0 m 1,4,-1
 82 518 l 1,5,-1
 145 518 l 1,6,-1
 145 0 l 1,7,-1
 82 0 l 1,4,-1
EndSplineSet
EndChar

StartChar: j
Encoding: 76 106 76
Width: 227
Flags: W
LayerCount: 2
Fore
SplineSet
-7 -152 m 1,0,1
 82 -148 82 -148 82 -60 c 2,2,-1
 82 518 l 1,3,-1
 145 518 l 1,4,-1
 145 -55 l 2,5,6
 145 -207 145 -207 -7 -207 c 1,7,-1
 -7 -152 l 1,0,1
79 614 m 1,8,-1
 79 694 l 1,9,-1
 148 694 l 1,10,-1
 148 614 l 1,11,-1
 79 614 l 1,8,-1
EndSplineSet
EndChar

StartChar: k
Encoding: 77 107 77
Width: 512
Flags: W
LayerCount: 2
Fore
SplineSet
82 0 m 1,0,-1
 82 740 l 1,1,-1
 145 740 l 1,2,-1
 145 233 l 1,3,-1
 403 518 l 1,4,-1
 464 518 l 1,5,-1
 470 505 l 1,6,-1
 283 300 l 1,7,-1
 484 13 l 1,8,-1
 478 0 l 1,9,-1
 417 0 l 1,10,-1
 241 254 l 1,11,-1
 145 151 l 1,12,-1
 145 0 l 1,13,-1
 82 0 l 1,0,-1
EndSplineSet
EndChar

StartChar: l
Encoding: 78 108 78
Width: 245
Flags: W
LayerCount: 2
Fore
SplineSet
78 127 m 2,0,-1
 78 740 l 1,1,-1
 141 740 l 1,2,-1
 141 121 l 2,3,4
 141 51 141 51 212 48 c 1,5,-1
 212 -7 l 1,6,7
 78 -7 78 -7 78 127 c 2,0,-1
EndSplineSet
EndChar

StartChar: m
Encoding: 79 109 79
Width: 894
Flags: W
LayerCount: 2
Fore
SplineSet
82 0 m 1,0,-1
 82 518 l 1,1,-1
 669 518 l 2,2,3
 815 518 815 518 815 371 c 2,4,-1
 815 0 l 1,5,-1
 753 0 l 1,6,-1
 753 381 l 2,7,8
 753 463 753 463 671 463 c 2,9,-1
 480 463 l 1,10,-1
 480 0 l 1,11,-1
 418 0 l 1,12,-1
 418 463 l 1,13,-1
 145 463 l 1,14,-1
 145 0 l 1,15,-1
 82 0 l 1,0,-1
EndSplineSet
EndChar

StartChar: n
Encoding: 80 110 80
Width: 584
Flags: W
LayerCount: 2
Fore
SplineSet
82 0 m 1,0,-1
 82 518 l 1,1,-1
 359 518 l 2,2,3
 505 518 505 518 505 371 c 2,4,-1
 505 0 l 1,5,-1
 443 0 l 1,6,-1
 443 381 l 2,7,8
 443 463 443 463 361 463 c 2,9,-1
 145 463 l 1,10,-1
 145 0 l 1,11,-1
 82 0 l 1,0,-1
EndSplineSet
EndChar

StartChar: o
Encoding: 81 111 81
Width: 582
Flags: W
LayerCount: 2
Fore
SplineSet
74 146 m 2,0,-1
 74 371 l 2,1,2
 74 518 74 518 221 518 c 2,3,-1
 361 518 l 2,4,5
 507 518 507 518 507 371 c 2,6,-1
 507 146 l 2,7,8
 507 0 507 0 361 0 c 2,9,-1
 221 0 l 2,10,11
 74 0 74 0 74 146 c 2,0,-1
137 136 m 2,12,13
 137 55 137 55 218 55 c 2,14,-1
 363 55 l 2,15,16
 445 55 445 55 445 136 c 2,17,-1
 445 381 l 2,18,19
 445 463 445 463 363 463 c 2,20,-1
 218 463 l 2,21,22
 137 463 137 463 137 381 c 2,23,-1
 137 136 l 2,12,13
EndSplineSet
EndChar

StartChar: p
Encoding: 82 112 82
Width: 580
Flags: W
LayerCount: 2
Fore
SplineSet
82 -200 m 1,0,-1
 82 518 l 1,1,-1
 359 518 l 2,2,3
 505 518 505 518 505 371 c 2,4,-1
 505 146 l 2,5,6
 505 0 505 0 359 0 c 2,7,-1
 145 0 l 1,8,-1
 145 -200 l 1,9,-1
 82 -200 l 1,0,-1
145 55 m 1,10,-1
 361 55 l 2,11,12
 443 55 443 55 443 136 c 2,13,-1
 443 381 l 2,14,15
 443 463 443 463 361 463 c 2,16,-1
 145 463 l 1,17,-1
 145 55 l 1,10,-1
EndSplineSet
EndChar

StartChar: q
Encoding: 83 113 83
Width: 580
Flags: W
LayerCount: 2
Fore
SplineSet
74 146 m 2,0,-1
 74 371 l 2,1,2
 74 518 74 518 221 518 c 2,3,-1
 497 518 l 1,4,-1
 497 -200 l 1,5,-1
 435 -200 l 1,6,-1
 435 0 l 1,7,-1
 221 0 l 2,8,9
 74 0 74 0 74 146 c 2,0,-1
137 136 m 2,10,11
 137 55 137 55 218 55 c 2,12,-1
 435 55 l 1,13,-1
 435 463 l 1,14,-1
 218 463 l 2,15,16
 137 463 137 463 137 381 c 2,17,-1
 137 136 l 2,10,11
EndSplineSet
EndChar

StartChar: r
Encoding: 84 114 84
Width: 362
Flags: W
LayerCount: 2
Fore
SplineSet
78 0 m 1,0,-1
 78 460 l 1,1,2
 113 518 113 518 205 518 c 2,3,-1
 302 518 l 1,4,-1
 336 492 l 1,5,-1
 336 463 l 1,6,-1
 202 463 l 2,7,8
 161 463 161 463 141 442 c 1,9,-1
 141 0 l 1,10,-1
 78 0 l 1,0,-1
EndSplineSet
EndChar

StartChar: s
Encoding: 85 115 85
Width: 498
Flags: W
LayerCount: 2
Fore
SplineSet
61 26 m 1,0,-1
 61 55 l 1,1,-1
 292 55 l 2,2,3
 373 55 373 55 373 135 c 256,4,5
 373 214 373 214 301 226 c 2,6,-1
 193 244 l 2,7,8
 61 266 61 266 61 378 c 256,9,10
 61 518 61 518 204 518 c 2,11,-1
 379 518 l 1,12,-1
 413 492 l 1,13,-1
 413 463 l 1,14,-1
 206 463 l 2,15,16
 125 463 125 463 125 383 c 256,17,18
 125 316 125 316 197 304 c 2,19,-1
 305 286 l 2,20,21
 437 264 437 264 437 140 c 256,22,23
 437 0 437 0 293 0 c 2,24,-1
 95 0 l 1,25,-1
 61 26 l 1,0,-1
EndSplineSet
EndChar

StartChar: t
Encoding: 86 116 86
Width: 382
Flags: W
LayerCount: 2
Fore
SplineSet
78 146 m 2,0,-1
 78 690 l 1,1,-1
 141 690 l 1,2,-1
 141 518 l 1,3,-1
 336 518 l 1,4,-1
 336 463 l 1,5,-1
 141 463 l 1,6,-1
 141 136 l 2,7,8
 141 55 141 55 222 55 c 2,9,-1
 346 55 l 1,10,-1
 346 26 l 1,11,-1
 312 0 l 1,12,-1
 225 0 l 2,13,14
 78 0 78 0 78 146 c 2,0,-1
EndSplineSet
EndChar

StartChar: u
Encoding: 87 117 87
Width: 584
Flags: W
LayerCount: 2
Fore
SplineSet
78 146 m 2,0,-1
 78 518 l 1,1,-1
 141 518 l 1,2,-1
 141 136 l 2,3,4
 141 55 141 55 222 55 c 2,5,-1
 439 55 l 1,6,-1
 439 518 l 1,7,-1
 501 518 l 1,8,-1
 501 0 l 1,9,-1
 225 0 l 2,10,11
 78 0 78 0 78 146 c 2,0,-1
EndSplineSet
EndChar

StartChar: v
Encoding: 88 118 88
Width: 509
Flags: W
LayerCount: 2
Fore
SplineSet
21 506 m 1,0,-1
 28 518 l 1,1,-1
 82 518 l 1,2,-1
 243 55 l 1,3,-1
 266 55 l 1,4,-1
 427 518 l 1,5,-1
 481 518 l 1,6,-1
 489 506 l 1,7,-1
 309 0 l 1,8,-1
 200 0 l 1,9,-1
 21 506 l 1,0,-1
EndSplineSet
EndChar

StartChar: w
Encoding: 89 119 89
Width: 781
Flags: W
LayerCount: 2
Fore
SplineSet
25 506 m 1,0,-1
 33 518 l 1,1,-1
 84 518 l 1,2,-1
 198 55 l 1,3,-1
 214 55 l 1,4,-1
 348 518 l 1,5,-1
 433 518 l 1,6,-1
 567 55 l 1,7,-1
 583 55 l 1,8,-1
 697 518 l 1,9,-1
 748 518 l 1,10,-1
 757 506 l 1,11,-1
 630 0 l 1,12,-1
 525 0 l 1,13,-1
 391 462 l 1,14,-1
 256 0 l 1,15,-1
 151 0 l 1,16,-1
 25 506 l 1,0,-1
EndSplineSet
EndChar

StartChar: x
Encoding: 90 120 90
Width: 509
Flags: W
LayerCount: 2
Fore
SplineSet
31 13 m 1,0,-1
 218 264 l 1,1,-1
 38 505 l 1,2,-1
 44 518 l 1,3,-1
 102 518 l 1,4,-1
 255 309 l 1,5,-1
 407 518 l 1,6,-1
 465 518 l 1,7,-1
 471 505 l 1,8,-1
 291 264 l 1,9,-1
 479 13 l 1,10,-1
 473 0 l 1,11,-1
 415 0 l 1,12,-1
 255 220 l 1,13,-1
 94 0 l 1,14,-1
 36 0 l 1,15,-1
 31 13 l 1,0,-1
EndSplineSet
EndChar

StartChar: y
Encoding: 91 121 91
Width: 509
Flags: W
LayerCount: 2
Fore
SplineSet
21 506 m 1,0,-1
 28 518 l 1,1,-1
 82 518 l 1,2,-1
 243 55 l 1,3,-1
 266 55 l 1,4,-1
 427 518 l 1,5,-1
 481 518 l 1,6,-1
 489 506 l 1,7,-1
 238 -200 l 1,8,-1
 184 -200 l 1,9,-1
 176 -188 l 1,10,-1
 245 0 l 1,11,-1
 200 0 l 1,12,-1
 21 506 l 1,0,-1
EndSplineSet
EndChar

StartChar: z
Encoding: 92 122 92
Width: 508
Flags: W
LayerCount: 2
Fore
SplineSet
52 0 m 1,0,-1
 52 49 l 1,1,-1
 367 463 l 1,2,-1
 62 463 l 1,3,-1
 62 518 l 1,4,-1
 445 518 l 1,5,-1
 445 468 l 1,6,-1
 130 55 l 1,7,-1
 455 55 l 1,8,-1
 455 0 l 1,9,-1
 52 0 l 1,0,-1
EndSplineSet
EndChar

StartChar: braceleft
Encoding: 93 123 93
Width: 368
Flags: W
LayerCount: 2
Fore
SplineSet
50 276 m 1,0,-1
 50 307 l 1,1,-1
 143 400 l 1,2,-1
 143 614 l 2,3,4
 143 760 143 760 289 760 c 2,5,-1
 338 760 l 1,6,-1
 338 705 l 1,7,-1
 287 705 l 2,8,9
 206 705 206 705 206 624 c 2,10,-1
 206 384 l 1,11,-1
 112 292 l 1,12,-1
 206 199 l 1,13,-1
 206 -44 l 2,14,15
 206 -125 206 -125 287 -125 c 2,16,-1
 338 -125 l 1,17,-1
 338 -180 l 1,18,-1
 289 -180 l 2,19,20
 143 -180 143 -180 143 -34 c 2,21,-1
 143 183 l 1,22,-1
 50 276 l 1,0,-1
EndSplineSet
EndChar

StartChar: bar
Encoding: 94 124 94
Width: 263
Flags: W
LayerCount: 2
Fore
SplineSet
102 -200 m 1,0,-1
 102 740 l 1,1,-1
 161 740 l 1,2,-1
 161 -200 l 1,3,-1
 102 -200 l 1,0,-1
EndSplineSet
EndChar

StartChar: braceright
Encoding: 95 125 95
Width: 368
Flags: W
LayerCount: 2
Fore
SplineSet
30 -125 m 1,0,-1
 81 -125 l 2,1,2
 162 -125 162 -125 162 -44 c 2,3,-1
 162 199 l 1,4,-1
 256 292 l 1,5,-1
 162 384 l 1,6,-1
 162 624 l 2,7,8
 162 705 162 705 81 705 c 2,9,-1
 30 705 l 1,10,-1
 30 760 l 1,11,-1
 79 760 l 2,12,13
 225 760 225 760 225 614 c 2,14,-1
 225 400 l 1,15,-1
 318 307 l 1,16,-1
 318 276 l 1,17,-1
 225 183 l 1,18,-1
 225 -34 l 2,19,20
 225 -180 225 -180 79 -180 c 2,21,-1
 30 -180 l 1,22,-1
 30 -125 l 1,0,-1
EndSplineSet
EndChar

StartChar: asciitilde
Encoding: 96 126 96
Width: 578
Flags: W
LayerCount: 2
Fore
SplineSet
54 300 m 1,0,-1
 142 388 l 2,1,2
 172 418 172 418 209 418 c 128,-1,3
 246 418 246 418 276 388 c 2,4,-1
 336 328 l 2,5,6
 353 311 353 311 369 311 c 128,-1,7
 385 311 385 311 402 328 c 2,8,-1
 484 410 l 1,9,-1
 524 370 l 1,10,-1
 436 282 l 2,11,12
 406 252 406 252 369 252 c 128,-1,13
 332 252 332 252 302 282 c 2,14,-1
 242 342 l 2,15,16
 225 359 225 359 209 359 c 128,-1,17
 193 359 193 359 176 342 c 2,18,-1
 94 260 l 1,19,-1
 54 300 l 1,0,-1
EndSplineSet
EndChar

StartChar: exclamdown
Encoding: 98 161 98
Width: 255
Flags: W
LayerCount: 2
Fore
SplineSet
86 420 m 1,0,-1
 86 518 l 1,1,-1
 169 518 l 1,2,-1
 169 420 l 1,3,-1
 86 420 l 1,0,-1
94 -172 m 1,4,-1
 94 311 l 1,5,-1
 160 311 l 1,6,-1
 160 -172 l 1,7,-1
 94 -172 l 1,4,-1
EndSplineSet
EndChar

StartChar: cent
Encoding: 99 162 99
Width: 578
Flags: W
LayerCount: 2
Fore
SplineSet
98 146 m 2,0,-1
 98 371 l 2,1,2
 98 518 98 518 244 518 c 2,3,-1
 290 518 l 1,4,-1
 290 628 l 1,5,-1
 342 628 l 1,6,-1
 342 518 l 1,7,-1
 443 518 l 1,8,-1
 477 492 l 1,9,-1
 477 463 l 1,10,-1
 242 463 l 2,11,12
 160 463 160 463 160 381 c 2,13,-1
 160 136 l 2,14,15
 160 55 160 55 242 55 c 2,16,-1
 477 55 l 1,17,-1
 477 26 l 1,18,-1
 443 0 l 1,19,-1
 342 0 l 1,20,-1
 342 -110 l 1,21,-1
 290 -110 l 1,22,-1
 290 0 l 1,23,-1
 244 0 l 2,24,25
 98 0 98 0 98 146 c 2,0,-1
EndSplineSet
EndChar

StartChar: sterling
Encoding: 100 163 100
Width: 578
Flags: W
LayerCount: 2
Fore
SplineSet
67 0 m 1,0,-1
 67 60 l 1,1,-1
 158 60 l 1,2,-1
 158 319 l 1,3,-1
 67 319 l 1,4,-1
 67 371 l 1,5,-1
 158 371 l 1,6,-1
 158 542 l 2,7,8
 158 690 158 690 306 690 c 2,9,-1
 463 690 l 1,10,-1
 501 660 l 1,11,-1
 501 630 l 1,12,-1
 303 630 l 2,13,14
 224 630 224 630 224 551 c 2,15,-1
 224 371 l 1,16,-1
 415 371 l 1,17,-1
 415 319 l 1,18,-1
 224 319 l 1,19,-1
 224 60 l 1,20,-1
 521 60 l 1,21,-1
 521 0 l 1,22,-1
 67 0 l 1,0,-1
EndSplineSet
EndChar

StartChar: currency
Encoding: 101 164 101
Width: 578
Flags: W
LayerCount: 2
Fore
SplineSet
62 152 m 1,0,-1
 136 226 l 1,1,-1
 136 474 l 1,2,-1
 62 548 l 1,3,-1
 96 582 l 1,4,-1
 170 508 l 1,5,-1
 408 508 l 1,6,-1
 482 582 l 1,7,-1
 516 548 l 1,8,-1
 442 474 l 1,9,-1
 442 226 l 1,10,-1
 516 152 l 1,11,-1
 482 118 l 1,12,-1
 408 192 l 1,13,-1
 170 192 l 1,14,-1
 96 118 l 1,15,-1
 62 152 l 1,0,-1
187 274 m 2,16,17
 187 236 187 236 225 236 c 2,18,-1
 353 236 l 2,19,20
 391 236 391 236 391 274 c 2,21,-1
 391 426 l 2,22,23
 391 464 391 464 353 464 c 2,24,-1
 225 464 l 2,25,26
 187 464 187 464 187 426 c 2,27,-1
 187 274 l 2,16,17
EndSplineSet
EndChar

StartChar: yen
Encoding: 102 165 102
Width: 578
Flags: W
LayerCount: 2
Fore
SplineSet
36 675 m 1,0,-1
 46 690 l 1,1,-1
 101 690 l 1,2,-1
 289 344 l 1,3,-1
 477 690 l 1,4,-1
 532 690 l 1,5,-1
 542 675 l 1,6,-1
 341 313 l 1,7,-1
 478 313 l 1,8,-1
 478 260 l 1,9,-1
 322 260 l 1,10,-1
 322 180 l 1,11,-1
 478 180 l 1,12,-1
 478 127 l 1,13,-1
 322 127 l 1,14,-1
 322 0 l 1,15,-1
 256 0 l 1,16,-1
 256 127 l 1,17,-1
 100 127 l 1,18,-1
 100 180 l 1,19,-1
 256 180 l 1,20,-1
 256 260 l 1,21,-1
 100 260 l 1,22,-1
 100 313 l 1,23,-1
 237 313 l 1,24,-1
 36 675 l 1,0,-1
EndSplineSet
EndChar

StartChar: brokenbar
Encoding: 103 166 103
Width: 263
Flags: W
LayerCount: 2
Fore
SplineSet
102 168 m 1,0,-1
 161 168 l 1,1,-1
 161 -200 l 1,2,-1
 102 -200 l 1,3,-1
 102 168 l 1,0,-1
102 372 m 1,4,-1
 102 740 l 1,5,-1
 161 740 l 1,6,-1
 161 372 l 1,7,-1
 102 372 l 1,4,-1
EndSplineSet
EndChar

StartChar: section
Encoding: 104 167 104
Width: 539
Flags: W
LayerCount: 2
Fore
SplineSet
82 -45 m 1,0,-1
 313 -45 l 2,1,2
 394 -45 394 -45 394 35 c 256,3,4
 394 97 394 97 346 109 c 2,5,-1
 170 153 l 2,6,7
 82 175 82 175 82 280 c 2,8,-1
 82 406 l 1,9,-1
 123 447 l 1,10,11
 82 481 82 481 82 550 c 256,12,13
 82 690 82 690 225 690 c 2,14,-1
 398 690 l 1,15,-1
 432 664 l 1,16,-1
 432 635 l 1,17,-1
 227 635 l 2,18,19
 146 635 146 635 146 555 c 256,20,21
 146 493 146 493 194 481 c 2,22,-1
 370 437 l 2,23,24
 458 415 458 415 458 310 c 2,25,-1
 458 184 l 1,26,-1
 417 143 l 1,27,28
 458 109 458 109 458 40 c 256,29,30
 458 -100 458 -100 315 -100 c 2,31,-1
 116 -100 l 1,32,-1
 82 -74 l 1,33,-1
 82 -45 l 1,0,-1
146 285 m 2,34,35
 146 222 146 222 194 210 c 2,36,-1
 394 160 l 1,37,-1
 394 305 l 2,38,39
 394 368 394 368 346 380 c 2,40,-1
 146 430 l 1,41,-1
 146 285 l 2,34,35
EndSplineSet
EndChar

StartChar: copyright
Encoding: 106 169 106
Width: 839
Flags: W
LayerCount: 2
Fore
SplineSet
82 93 m 2,0,-1
 82 597 l 2,1,2
 82 690 82 690 175 690 c 2,3,-1
 664 690 l 2,4,5
 756 690 756 690 756 597 c 2,6,-1
 756 93 l 2,7,8
 756 0 756 0 664 0 c 2,9,-1
 175 0 l 2,10,11
 82 0 82 0 82 93 c 2,0,-1
130 84 m 2,12,13
 130 43 130 43 171 43 c 2,14,-1
 668 43 l 2,15,16
 709 43 709 43 709 84 c 2,17,-1
 709 606 l 2,18,19
 709 647 709 647 668 647 c 2,20,-1
 171 647 l 2,21,22
 130 647 130 647 130 606 c 2,23,-1
 130 84 l 2,12,13
261 241 m 2,24,-1
 261 449 l 2,25,26
 261 542 261 542 354 542 c 2,27,-1
 520 542 l 1,28,-1
 548 521 l 1,29,-1
 548 496 l 1,30,-1
 350 496 l 2,31,32
 312 496 312 496 312 458 c 2,33,-1
 312 232 l 2,34,35
 312 194 312 194 350 194 c 2,36,-1
 548 194 l 1,37,-1
 548 169 l 1,38,-1
 520 148 l 1,39,-1
 354 148 l 2,40,41
 261 148 261 148 261 241 c 2,24,-1
EndSplineSet
EndChar

StartChar: ordfeminine
Encoding: 107 170 107
Width: 399
Flags: W
LayerCount: 2
Fore
SplineSet
42 395 m 2,0,-1
 42 434 l 2,1,2
 42 528 42 528 135 528 c 2,3,-1
 296 528 l 1,4,-1
 296 606 l 2,5,6
 296 644 296 644 258 644 c 2,7,-1
 69 644 l 1,8,-1
 69 669 l 1,9,-1
 97 690 l 1,10,-1
 254 690 l 2,11,12
 347 690 347 690 347 597 c 2,13,-1
 347 301 l 1,14,-1
 135 301 l 2,15,16
 42 301 42 301 42 395 c 2,0,-1
93 385 m 2,17,18
 93 347 93 347 131 347 c 2,19,-1
 296 347 l 1,20,-1
 296 482 l 1,21,-1
 131 482 l 2,22,23
 93 482 93 482 93 444 c 2,24,-1
 93 385 l 2,17,18
EndSplineSet
EndChar

StartChar: logicalnot
Encoding: 109 172 109
Width: 578
Flags: W
LayerCount: 2
Fore
SplineSet
65 357 m 1,0,-1
 65 413 l 1,1,-1
 513 413 l 1,2,-1
 513 151 l 1,3,-1
 454 151 l 1,4,-1
 454 357 l 1,5,-1
 65 357 l 1,0,-1
EndSplineSet
EndChar

StartChar: registered
Encoding: 111 174 111
Width: 839
Flags: W
LayerCount: 2
Fore
SplineSet
82 93 m 2,0,-1
 82 597 l 2,1,2
 82 690 82 690 175 690 c 2,3,-1
 664 690 l 2,4,5
 756 690 756 690 756 597 c 2,6,-1
 756 93 l 2,7,8
 756 0 756 0 664 0 c 2,9,-1
 175 0 l 2,10,11
 82 0 82 0 82 93 c 2,0,-1
130 84 m 2,12,13
 130 43 130 43 171 43 c 2,14,-1
 668 43 l 2,15,16
 709 43 709 43 709 84 c 2,17,-1
 709 606 l 2,18,19
 709 647 709 647 668 647 c 2,20,-1
 171 647 l 2,21,22
 130 647 130 647 130 606 c 2,23,-1
 130 84 l 2,12,13
281 148 m 1,24,-1
 281 542 l 1,25,-1
 472 542 l 2,26,27
 565 542 565 542 565 449 c 2,28,-1
 565 396 l 2,29,30
 565 319 565 319 503 306 c 1,31,-1
 577 160 l 1,32,-1
 570 148 l 1,33,-1
 528 148 l 1,34,-1
 449 302 l 1,35,-1
 332 302 l 1,36,-1
 332 148 l 1,37,-1
 281 148 l 1,24,-1
332 348 m 1,38,-1
 476 348 l 2,39,40
 514 348 514 348 514 386 c 2,41,-1
 514 458 l 2,42,43
 514 496 514 496 476 496 c 2,44,-1
 332 496 l 1,45,-1
 332 348 l 1,38,-1
EndSplineSet
EndChar

StartChar: degree
Encoding: 113 176 113
Width: 409
Flags: W
LayerCount: 2
Fore
SplineSet
62 463 m 2,0,-1
 62 597 l 2,1,2
 62 690 62 690 155 690 c 2,3,-1
 254 690 l 2,4,5
 347 690 347 690 347 597 c 2,6,-1
 347 463 l 2,7,8
 347 370 347 370 254 370 c 2,9,-1
 155 370 l 2,10,11
 62 370 62 370 62 463 c 2,0,-1
110 454 m 2,12,13
 110 413 110 413 151 413 c 2,14,-1
 259 413 l 2,15,16
 300 413 300 413 300 454 c 2,17,-1
 300 606 l 2,18,19
 300 647 300 647 259 647 c 2,20,-1
 151 647 l 2,21,22
 110 647 110 647 110 606 c 2,23,-1
 110 454 l 2,12,13
EndSplineSet
EndChar

StartChar: plusminus
Encoding: 114 177 114
Width: 578
Flags: W
LayerCount: 2
Fore
SplineSet
65 0 m 1,0,-1
 65 56 l 1,1,-1
 513 56 l 1,2,-1
 513 0 l 1,3,-1
 65 0 l 1,0,-1
65 321 m 1,4,-1
 65 377 l 1,5,-1
 260 377 l 1,6,-1
 260 575 l 1,7,-1
 318 575 l 1,8,-1
 318 377 l 1,9,-1
 513 377 l 1,10,-1
 513 321 l 1,11,-1
 318 321 l 1,12,-1
 318 123 l 1,13,-1
 260 123 l 1,14,-1
 260 321 l 1,15,-1
 65 321 l 1,4,-1
EndSplineSet
EndChar

StartChar: uni00B2
Encoding: 115 178 115
Width: 358
Flags: W
LayerCount: 2
Fore
SplineSet
42 282 m 1,0,-1
 42 402 l 2,1,2
 42 480 42 480 112 494 c 10,3,-1
 230 517 l 2,4,5
 266 524 266 524 266 558 c 2,6,-1
 266 606 l 2,7,8
 266 644 266 644 228 644 c 2,9,-1
 54 644 l 1,10,-1
 54 669 l 1,11,-1
 81 690 l 1,12,-1
 223 690 l 2,13,14
 316 690 316 690 316 597 c 2,15,-1
 316 563 l 2,16,17
 316 486 316 486 246 472 c 10,18,-1
 128 448 l 2,19,20
 93 441 93 441 93 407 c 2,21,-1
 93 328 l 1,22,-1
 316 328 l 1,23,-1
 316 282 l 1,24,-1
 42 282 l 1,0,-1
EndSplineSet
EndChar

StartChar: uni00B3
Encoding: 116 179 116
Width: 358
Flags: W
LayerCount: 2
Fore
SplineSet
48 303 m 1,0,-1
 48 328 l 1,1,-1
 228 328 l 2,2,3
 266 328 266 328 266 366 c 2,4,-1
 266 432 l 2,5,6
 266 470 266 470 228 470 c 2,7,-1
 92 470 l 1,8,-1
 92 516 l 1,9,-1
 228 516 l 2,10,11
 266 516 266 516 266 554 c 2,12,-1
 266 606 l 2,13,14
 266 644 266 644 228 644 c 2,15,-1
 54 644 l 1,16,-1
 54 669 l 1,17,-1
 81 690 l 1,18,-1
 223 690 l 2,19,20
 316 690 316 690 316 597 c 2,21,-1
 316 562 l 2,22,23
 316 535 316 535 299 518 c 2,24,-1
 276 495 l 1,25,-1
 299 472 l 2,26,27
 316 455 316 455 316 428 c 2,28,-1
 316 375 l 2,29,30
 316 282 316 282 223 282 c 2,31,-1
 75 282 l 1,32,-1
 48 303 l 1,0,-1
EndSplineSet
EndChar

StartChar: mu
Encoding: 118 181 118
Width: 584
Flags: W
LayerCount: 2
Fore
SplineSet
82 -200 m 1,0,-1
 82 518 l 1,1,-1
 145 518 l 1,2,-1
 145 55 l 1,3,-1
 361 55 l 2,4,5
 443 55 443 55 443 136 c 2,6,-1
 443 518 l 1,7,-1
 505 518 l 1,8,-1
 505 146 l 2,9,10
 505 0 505 0 359 0 c 2,11,-1
 145 0 l 1,12,-1
 145 -200 l 1,13,-1
 82 -200 l 1,0,-1
EndSplineSet
EndChar

StartChar: paragraph
Encoding: 119 182 119
Width: 558
Flags: W
LayerCount: 2
Fore
SplineSet
72 399 m 2,0,-1
 72 540 l 2,1,2
 72 690 72 690 222 690 c 2,3,-1
 323 690 l 1,4,-1
 323 249 l 1,5,-1
 222 249 l 2,6,7
 72 249 72 249 72 399 c 2,0,-1
393 -170 m 1,8,-1
 393 690 l 1,9,-1
 456 690 l 1,10,-1
 456 -170 l 1,11,-1
 393 -170 l 1,8,-1
EndSplineSet
EndChar

StartChar: uni00B9
Encoding: 122 185 122
Width: 358
Flags: W
LayerCount: 2
Fore
SplineSet
60 282 m 1,0,-1
 60 328 l 1,1,-1
 165 328 l 1,2,-1
 165 644 l 1,3,-1
 83 644 l 1,4,-1
 83 669 l 1,5,-1
 110 690 l 1,6,-1
 216 690 l 1,7,-1
 216 328 l 1,8,-1
 310 328 l 1,9,-1
 310 282 l 1,10,-1
 60 282 l 1,0,-1
EndSplineSet
EndChar

StartChar: ordmasculine
Encoding: 123 186 123
Width: 429
Flags: W
LayerCount: 2
Fore
SplineSet
52 395 m 2,0,-1
 52 597 l 2,1,2
 52 690 52 690 145 690 c 2,3,-1
 284 690 l 2,4,5
 377 690 377 690 377 597 c 2,6,-1
 377 395 l 2,7,8
 377 301 377 301 284 301 c 2,9,-1
 145 301 l 2,10,11
 52 301 52 301 52 395 c 2,0,-1
103 385 m 2,12,13
 103 347 103 347 141 347 c 2,14,-1
 288 347 l 2,15,16
 326 347 326 347 326 385 c 2,17,-1
 326 606 l 2,18,19
 326 644 326 644 288 644 c 2,20,-1
 141 644 l 2,21,22
 103 644 103 644 103 606 c 2,23,-1
 103 385 l 2,12,13
EndSplineSet
EndChar

StartChar: questiondown
Encoding: 128 191 128
Width: 473
Flags: W
LayerCount: 2
Fore
SplineSet
50 -24 m 2,0,-1
 50 68 l 2,1,2
 50 216 50 216 198 216 c 2,3,-1
 250 216 l 1,4,-1
 250 311 l 1,5,-1
 317 311 l 1,6,-1
 317 157 l 1,7,-1
 195 157 l 2,8,9
 116 157 116 157 116 77 c 2,10,-1
 116 -33 l 2,11,12
 116 -113 116 -113 195 -113 c 2,13,-1
 453 -113 l 1,14,-1
 453 -142 l 1,15,-1
 414 -172 l 1,16,-1
 198 -172 l 2,17,18
 50 -172 50 -172 50 -24 c 2,0,-1
243 420 m 1,19,-1
 243 518 l 1,20,-1
 326 518 l 1,21,-1
 326 420 l 1,22,-1
 243 420 l 1,19,-1
EndSplineSet
EndChar

StartChar: AE
Encoding: 135 198 135
Width: 879
Flags: W
LayerCount: 2
Fore
SplineSet
21 15 m 1,0,-1
 253 690 l 1,1,-1
 829 690 l 1,2,-1
 829 630 l 1,3,-1
 487 630 l 1,4,-1
 487 394 l 1,5,-1
 799 394 l 1,6,-1
 799 334 l 1,7,-1
 487 334 l 1,8,-1
 487 60 l 1,9,-1
 829 60 l 1,10,-1
 829 0 l 1,11,-1
 421 0 l 1,12,-1
 421 184 l 1,13,-1
 146 184 l 1,14,-1
 84 0 l 1,15,-1
 31 0 l 1,16,-1
 21 15 l 1,0,-1
167 244 m 1,17,-1
 421 244 l 1,18,-1
 421 630 l 1,19,-1
 296 630 l 1,20,-1
 167 244 l 1,17,-1
EndSplineSet
EndChar

StartChar: Eth
Encoding: 145 208 145
Width: 686
Flags: W
LayerCount: 2
Fore
SplineSet
20 319 m 1,0,-1
 20 371 l 1,1,-1
 101 371 l 1,2,-1
 101 690 l 1,3,-1
 398 690 l 2,4,5
 613 690 613 690 613 475 c 2,6,-1
 613 215 l 2,7,8
 613 0 613 0 398 0 c 2,9,-1
 101 0 l 1,10,-1
 101 319 l 1,11,-1
 20 319 l 1,0,-1
167 60 m 1,12,-1
 398 60 l 2,13,14
 547 60 547 60 547 209 c 2,15,-1
 547 481 l 2,16,17
 547 630 547 630 398 630 c 2,18,-1
 167 630 l 1,19,-1
 167 371 l 1,20,-1
 357 371 l 1,21,-1
 357 319 l 1,22,-1
 167 319 l 1,23,-1
 167 60 l 1,12,-1
EndSplineSet
EndChar

StartChar: multiply
Encoding: 152 215 152
Width: 578
Flags: W
LayerCount: 2
Fore
SplineSet
89 175 m 1,0,-1
 249 335 l 1,1,-1
 89 495 l 1,2,-1
 129 535 l 1,3,-1
 289 375 l 1,4,-1
 449 535 l 1,5,-1
 489 495 l 1,6,-1
 329 335 l 1,7,-1
 489 175 l 1,8,-1
 449 135 l 1,9,-1
 289 295 l 1,10,-1
 129 135 l 1,11,-1
 89 175 l 1,0,-1
EndSplineSet
EndChar

StartChar: Oslash
Encoding: 153 216 153
Width: 698
Flags: W
LayerCount: 2
Fore
SplineSet
82 148 m 2,0,-1
 82 542 l 2,1,2
 82 690 82 690 231 690 c 2,3,-1
 467 690 l 2,4,5
 615 690 615 690 615 542 c 2,6,-1
 615 148 l 2,7,8
 615 0 615 0 467 0 c 2,9,-1
 231 0 l 2,10,11
 82 0 82 0 82 148 c 2,0,-1
148 201 m 1,12,-1
 548 560 l 1,13,14
 544 630 544 630 470 630 c 2,15,-1
 228 630 l 2,16,17
 148 630 148 630 148 551 c 2,18,-1
 148 201 l 1,12,-1
149 130 m 1,19,20
 154 60 154 60 228 60 c 2,21,-1
 470 60 l 2,22,23
 549 60 549 60 549 139 c 2,24,-1
 549 489 l 1,25,-1
 149 130 l 1,19,20
EndSplineSet
EndChar

StartChar: Thorn
Encoding: 159 222 159
Width: 628
Flags: W
LayerCount: 2
Fore
SplineSet
92 0 m 1,0,-1
 92 690 l 1,1,-1
 158 690 l 1,2,-1
 158 564 l 1,3,-1
 417 564 l 2,4,5
 565 564 565 564 565 416 c 2,6,-1
 565 288 l 2,7,8
 565 140 565 140 417 140 c 2,9,-1
 158 140 l 1,10,-1
 158 0 l 1,11,-1
 92 0 l 1,0,-1
158 200 m 1,12,-1
 420 200 l 2,13,14
 499 200 499 200 499 279 c 2,15,-1
 499 425 l 2,16,17
 499 504 499 504 420 504 c 2,18,-1
 158 504 l 1,19,-1
 158 200 l 1,12,-1
EndSplineSet
EndChar

StartChar: germandbls
Encoding: 160 223 160
Width: 597
Flags: W
LayerCount: 2
Fore
SplineSet
82 0 m 1,0,-1
 82 594 l 2,1,2
 82 740 82 740 229 740 c 2,3,-1
 356 740 l 2,4,5
 502 740 502 740 502 594 c 2,6,-1
 502 491 l 2,7,8
 502 457 502 457 482 433 c 2,9,-1
 447 391 l 1,10,-1
 489 356 l 2,11,12
 522 328 522 328 522 276 c 2,13,-1
 522 146 l 2,14,15
 522 0 522 0 376 0 c 2,16,-1
 277 0 l 1,17,-1
 243 26 l 1,18,-1
 243 55 l 1,19,-1
 378 55 l 2,20,21
 460 55 460 55 460 136 c 2,22,-1
 460 276 l 2,23,24
 460 358 460 358 378 358 c 2,25,-1
 253 358 l 1,26,-1
 253 412 l 1,27,-1
 358 412 l 2,28,29
 440 412 440 412 440 494 c 2,30,-1
 440 604 l 2,31,32
 440 685 440 685 358 685 c 2,33,-1
 226 685 l 2,34,35
 145 685 145 685 145 604 c 2,36,-1
 145 0 l 1,37,-1
 82 0 l 1,0,-1
EndSplineSet
EndChar

StartChar: ae
Encoding: 167 230 167
Width: 878
Flags: W
LayerCount: 2
Fore
SplineSet
202 0 m 2,0,1
 54 0 54 0 54 148 c 128,-1,2
 54 296 54 296 202 296 c 2,3,-1
 393 296 l 1,4,-1
 393 381 l 2,5,6
 393 463 393 463 312 463 c 2,7,-1
 103 463 l 1,8,-1
 103 492 l 1,9,-1
 137 518 l 1,10,-1
 310 518 l 2,11,12
 387 518 387 518 425 476 c 1,13,14
 463 518 463 518 539 518 c 2,15,-1
 657 518 l 2,16,17
 803 518 803 518 803 371 c 2,18,-1
 803 232 l 1,19,-1
 456 232 l 1,20,-1
 456 136 l 2,21,22
 456 55 456 55 537 55 c 2,23,-1
 783 55 l 1,24,-1
 783 26 l 1,25,-1
 749 0 l 1,26,-1
 539 0 l 2,27,28
 463 0 463 0 425 42 c 1,29,30
 387 0 387 0 310 0 c 2,31,-1
 202 0 l 2,0,1
117 136 m 2,32,33
 117 55 117 55 198 55 c 2,34,-1
 312 55 l 2,35,36
 393 55 393 55 393 136 c 2,37,-1
 393 241 l 1,38,-1
 198 241 l 2,39,40
 117 241 117 241 117 159 c 2,41,-1
 117 136 l 2,32,33
456 287 m 1,42,-1
 741 287 l 1,43,-1
 741 381 l 2,44,45
 741 463 741 463 659 463 c 2,46,-1
 537 463 l 2,47,48
 456 463 456 463 456 381 c 2,49,-1
 456 287 l 1,42,-1
EndSplineSet
EndChar

StartChar: eth
Encoding: 177 240 177
Width: 582
Flags: W
LayerCount: 2
Fore
SplineSet
74 146 m 2,0,-1
 74 304 l 2,1,2
 74 450 74 450 221 450 c 2,3,-1
 418 450 l 1,4,-1
 335 582 l 1,5,-1
 226 530 l 1,6,-1
 205 575 l 1,7,-1
 309 624 l 1,8,-1
 252 714 l 1,9,-1
 302 746 l 1,10,-1
 363 650 l 1,11,-1
 475 703 l 1,12,-1
 495 659 l 1,13,-1
 389 608 l 1,14,-1
 476 470 l 2,15,16
 507 421 507 421 507 370 c 2,17,-1
 507 146 l 2,18,19
 507 0 507 0 361 0 c 2,20,-1
 221 0 l 2,21,22
 74 0 74 0 74 146 c 2,0,-1
137 136 m 2,23,24
 137 55 137 55 218 55 c 2,25,-1
 363 55 l 2,26,27
 445 55 445 55 445 136 c 2,28,-1
 445 395 l 1,29,-1
 218 395 l 2,30,31
 137 395 137 395 137 314 c 2,32,-1
 137 136 l 2,23,24
EndSplineSet
EndChar

StartChar: divide
Encoding: 184 247 184
Width: 578
Flags: W
LayerCount: 2
Fore
SplineSet
65 307 m 1,0,-1
 65 363 l 1,1,-1
 513 363 l 1,2,-1
 513 307 l 1,3,-1
 65 307 l 1,0,-1
248 104 m 1,4,-1
 248 186 l 1,5,-1
 330 186 l 1,6,-1
 330 104 l 1,7,-1
 248 104 l 1,4,-1
248 484 m 1,8,-1
 248 566 l 1,9,-1
 330 566 l 1,10,-1
 330 484 l 1,11,-1
 248 484 l 1,8,-1
EndSplineSet
EndChar

StartChar: oslash
Encoding: 185 248 185
Width: 582
Flags: W
LayerCount: 2
Fore
SplineSet
74 146 m 2,0,-1
 74 371 l 2,1,2
 74 518 74 518 221 518 c 2,3,-1
 361 518 l 2,4,5
 507 518 507 518 507 371 c 2,6,-1
 507 146 l 2,7,8
 507 0 507 0 361 0 c 2,9,-1
 221 0 l 2,10,11
 74 0 74 0 74 146 c 2,0,-1
137 153 m 1,12,-1
 438 424 l 1,13,14
 420 463 420 463 363 463 c 2,15,-1
 218 463 l 2,16,17
 137 463 137 463 137 381 c 2,18,-1
 137 153 l 1,12,-1
144 94 m 1,19,20
 162 55 162 55 218 55 c 2,21,-1
 363 55 l 2,22,23
 445 55 445 55 445 136 c 2,24,-1
 445 365 l 1,25,-1
 144 94 l 1,19,20
EndSplineSet
EndChar

StartChar: thorn
Encoding: 191 254 191
Width: 580
Flags: W
LayerCount: 2
Fore
SplineSet
82 -200 m 1,0,-1
 82 740 l 1,1,-1
 145 740 l 1,2,-1
 145 518 l 1,3,-1
 359 518 l 2,4,5
 505 518 505 518 505 371 c 2,6,-1
 505 146 l 2,7,8
 505 0 505 0 359 0 c 2,9,-1
 145 0 l 1,10,-1
 145 -200 l 1,11,-1
 82 -200 l 1,0,-1
145 55 m 1,12,-1
 361 55 l 2,13,14
 443 55 443 55 443 136 c 2,15,-1
 443 381 l 2,16,17
 443 463 443 463 361 463 c 2,18,-1
 145 463 l 1,19,-1
 145 55 l 1,12,-1
EndSplineSet
EndChar

StartChar: dcroat
Encoding: 206 273 206
Width: 580
Flags: W
LayerCount: 2
Fore
SplineSet
74 146 m 2,0,-1
 74 371 l 2,1,2
 74 518 74 518 221 518 c 2,3,-1
 435 518 l 1,4,-1
 435 604 l 1,5,-1
 244 604 l 1,6,-1
 244 654 l 1,7,-1
 435 654 l 1,8,-1
 435 740 l 1,9,-1
 497 740 l 1,10,-1
 497 654 l 1,11,-1
 568 654 l 1,12,-1
 568 604 l 1,13,-1
 497 604 l 1,14,-1
 497 0 l 1,15,-1
 221 0 l 2,16,17
 74 0 74 0 74 146 c 2,0,-1
137 136 m 2,18,19
 137 55 137 55 218 55 c 2,20,-1
 435 55 l 1,21,-1
 435 463 l 1,22,-1
 218 463 l 2,23,24
 137 463 137 463 137 381 c 2,25,-1
 137 136 l 2,18,19
EndSplineSet
EndChar

StartChar: dotlessi
Encoding: 224 305 224
Width: 227
Flags: W
LayerCount: 2
Fore
SplineSet
82 0 m 1,0,-1
 82 518 l 1,1,-1
 145 518 l 1,2,-1
 145 0 l 1,3,-1
 82 0 l 1,0,-1
EndSplineSet
EndChar

StartChar: Lslash
Encoding: 233 321 233
Width: 534
Flags: W
LayerCount: 2
Fore
SplineSet
10 277 m 1,0,-1
 97 328 l 1,1,-1
 97 690 l 1,2,-1
 163 690 l 1,3,-1
 163 365 l 1,4,-1
 305 448 l 1,5,-1
 331 403 l 1,6,-1
 163 306 l 1,7,-1
 163 60 l 1,8,-1
 510 60 l 1,9,-1
 510 0 l 1,10,-1
 97 0 l 1,11,-1
 97 267 l 1,12,-1
 36 232 l 1,13,-1
 10 277 l 1,0,-1
EndSplineSet
EndChar

StartChar: lslash
Encoding: 234 322 234
Width: 259
Flags: W
LayerCount: 2
Fore
SplineSet
6 331 m 1,0,-1
 86 378 l 1,1,-1
 86 740 l 1,2,-1
 149 740 l 1,3,-1
 149 414 l 1,4,-1
 226 458 l 1,5,-1
 251 416 l 1,6,-1
 149 357 l 1,7,-1
 149 121 l 2,8,9
 149 51 149 51 220 48 c 1,10,-1
 220 -7 l 1,11,12
 86 -7 86 -7 86 127 c 2,13,-1
 86 322 l 1,14,-1
 30 288 l 1,15,-1
 6 331 l 1,0,-1
EndSplineSet
EndChar

StartChar: OE
Encoding: 245 338 245
Width: 958
Flags: W
LayerCount: 2
Fore
SplineSet
82 148 m 2,0,-1
 82 542 l 2,1,2
 82 690 82 690 231 690 c 2,3,-1
 908 690 l 1,4,-1
 908 630 l 1,5,-1
 566 630 l 1,6,-1
 566 394 l 1,7,-1
 878 394 l 1,8,-1
 878 334 l 1,9,-1
 566 334 l 1,10,-1
 566 60 l 1,11,-1
 908 60 l 1,12,-1
 908 0 l 1,13,-1
 231 0 l 2,14,15
 82 0 82 0 82 148 c 2,0,-1
148 139 m 2,16,17
 148 60 148 60 228 60 c 2,18,-1
 500 60 l 1,19,-1
 500 630 l 1,20,-1
 228 630 l 2,21,22
 148 630 148 630 148 551 c 2,23,-1
 148 139 l 2,16,17
EndSplineSet
EndChar

StartChar: oe
Encoding: 246 339 246
Width: 916
Flags: W
LayerCount: 2
Fore
SplineSet
74 146 m 2,0,-1
 74 371 l 2,1,2
 74 518 74 518 221 518 c 2,3,-1
 348 518 l 2,4,5
 425 518 425 518 463 476 c 1,6,7
 501 518 501 518 578 518 c 2,8,-1
 695 518 l 2,9,10
 841 518 841 518 841 371 c 2,11,-1
 841 232 l 1,12,-1
 494 232 l 1,13,-1
 494 136 l 2,14,15
 494 55 494 55 576 55 c 2,16,-1
 821 55 l 1,17,-1
 821 26 l 1,18,-1
 787 0 l 1,19,-1
 578 0 l 2,20,21
 501 0 501 0 463 42 c 1,22,23
 425 0 425 0 348 0 c 2,24,-1
 221 0 l 2,25,26
 74 0 74 0 74 146 c 2,0,-1
137 136 m 2,27,28
 137 55 137 55 218 55 c 2,29,-1
 350 55 l 2,30,31
 432 55 432 55 432 136 c 2,32,-1
 432 381 l 2,33,34
 432 463 432 463 350 463 c 2,35,-1
 218 463 l 2,36,37
 137 463 137 463 137 381 c 2,38,-1
 137 136 l 2,27,28
494 287 m 1,39,-1
 779 287 l 1,40,-1
 779 381 l 2,41,42
 779 463 779 463 697 463 c 2,43,-1
 576 463 l 2,44,45
 494 463 494 463 494 381 c 2,46,-1
 494 287 l 1,39,-1
EndSplineSet
EndChar

StartChar: florin
Encoding: 278 402 278
Width: 568
Flags: W
LayerCount: 2
Fore
SplineSet
40 -78 m 1,0,-1
 111 -78 l 2,1,2
 192 -78 192 -78 192 3 c 2,3,-1
 192 594 l 2,4,5
 192 740 192 740 339 740 c 2,6,-1
 426 740 l 1,7,-1
 460 714 l 1,8,-1
 460 685 l 1,9,-1
 336 685 l 2,10,11
 255 685 255 685 255 604 c 2,12,-1
 255 518 l 1,13,-1
 450 518 l 1,14,-1
 450 463 l 1,15,-1
 255 463 l 1,16,-1
 255 13 l 2,17,18
 255 -133 255 -133 109 -133 c 2,19,-1
 74 -133 l 1,20,-1
 40 -108 l 1,21,-1
 40 -78 l 1,0,-1
EndSplineSet
EndChar

StartChar: uni0237
Encoding: 283 567 283
Width: 227
Flags: W
LayerCount: 2
Fore
SplineSet
-7 -152 m 1,0,1
 82 -148 82 -148 82 -60 c 2,2,-1
 82 518 l 1,3,-1
 145 518 l 1,4,-1
 145 -55 l 2,5,6
 145 -207 145 -207 -7 -207 c 1,7,-1
 -7 -152 l 1,0,1
EndSplineSet
EndChar

StartChar: uni0300
Encoding: 293 768 293
Width: 0
Flags: W
LayerCount: 2
Fore
SplineSet
-399 705 m 1,0,-1
 -355 747 l 1,1,-1
 -230 605 l 1,2,-1
 -266 571 l 1,3,-1
 -399 705 l 1,0,-1
EndSplineSet
EndChar

StartChar: uni0301
Encoding: 294 769 294
Width: 0
Flags: W
LayerCount: 2
Fore
SplineSet
-340 605 m 1,0,-1
 -215 747 l 1,1,-1
 -171 705 l 1,2,-1
 -304 571 l 1,3,-1
 -340 605 l 1,0,-1
EndSplineSet
EndChar

StartChar: uni0302
Encoding: 295 770 295
Width: 0
Flags: W
LayerCount: 2
Fore
SplineSet
-417 617 m 1,0,-1
 -285 747 l 1,1,-1
 -152 617 l 1,2,-1
 -186 583 l 1,3,-1
 -285 677 l 1,4,-1
 -384 583 l 1,5,-1
 -417 617 l 1,0,-1
EndSplineSet
EndChar

StartChar: uni0303
Encoding: 296 771 296
Width: 0
Flags: W
LayerCount: 2
Fore
SplineSet
-433 634 m 1,0,-1
 -384 683 l 2,1,2
 -361 706 -361 706 -334 706 c 128,-1,3
 -307 706 -307 706 -284 683 c 2,4,-1
 -254 653 l 2,5,6
 -245 644 -245 644 -236 644 c 128,-1,7
 -227 644 -227 644 -218 653 c 2,8,-1
 -169 702 l 1,9,-1
 -136 669 l 1,10,-1
 -185 620 l 2,11,12
 -208 597 -208 597 -235 597 c 128,-1,13
 -262 597 -262 597 -285 620 c 2,14,-1
 -315 650 l 2,15,16
 -324 659 -324 659 -333 659 c 128,-1,17
 -342 659 -342 659 -351 650 c 2,18,-1
 -400 601 l 1,19,-1
 -433 634 l 1,0,-1
EndSplineSet
EndChar

StartChar: uni0304
Encoding: 297 772 297
Width: 0
Flags: W
LayerCount: 2
Fore
SplineSet
-410 627 m 1,0,-1
 -410 682 l 1,1,-1
 -160 682 l 1,2,-1
 -160 627 l 1,3,-1
 -410 627 l 1,0,-1
EndSplineSet
EndChar

StartChar: uni0306
Encoding: 298 774 298
Width: 0
Flags: W
LayerCount: 2
Fore
SplineSet
-406 669 m 2,0,-1
 -406 723 l 1,1,-1
 -360 723 l 1,2,-1
 -360 666 l 2,3,4
 -360 645 -360 645 -339 645 c 2,5,-1
 -231 645 l 2,6,7
 -210 645 -210 645 -210 666 c 2,8,-1
 -210 723 l 1,9,-1
 -164 723 l 1,10,-1
 -164 669 l 2,11,12
 -164 599 -164 599 -234 599 c 2,13,-1
 -336 599 l 2,14,15
 -406 599 -406 599 -406 669 c 2,0,-1
EndSplineSet
EndChar

StartChar: uni0307
Encoding: 299 775 299
Width: 0
Flags: W
LayerCount: 2
Fore
SplineSet
-319 614 m 1,0,-1
 -319 694 l 1,1,-1
 -251 694 l 1,2,-1
 -251 614 l 1,3,-1
 -319 614 l 1,0,-1
EndSplineSet
EndChar

StartChar: uni0308
Encoding: 300 776 300
Width: 0
Flags: W
LayerCount: 2
Fore
SplineSet
-406 617 m 1,0,-1
 -406 694 l 1,1,-1
 -338 694 l 1,2,-1
 -338 617 l 1,3,-1
 -406 617 l 1,0,-1
-232 617 m 1,4,-1
 -232 694 l 1,5,-1
 -164 694 l 1,6,-1
 -164 617 l 1,7,-1
 -232 617 l 1,4,-1
EndSplineSet
EndChar

StartChar: uni030A
Encoding: 301 778 301
Width: 0
Flags: W
LayerCount: 2
Fore
SplineSet
-383 642 m 2,0,-1
 -383 693 l 2,1,2
 -383 762 -383 762 -314 762 c 2,3,-1
 -256 762 l 2,4,5
 -187 762 -187 762 -187 693 c 2,6,-1
 -187 642 l 2,7,8
 -187 573 -187 573 -256 573 c 2,9,-1
 -314 573 l 2,10,11
 -383 573 -383 573 -383 642 c 2,0,-1
-338 636 m 2,12,13
 -338 612 -338 612 -315 612 c 2,14,-1
 -255 612 l 2,15,16
 -231 612 -231 612 -231 636 c 2,17,-1
 -231 699 l 2,18,19
 -231 723 -231 723 -255 723 c 2,20,-1
 -315 723 l 2,21,22
 -338 723 -338 723 -338 699 c 2,23,-1
 -338 636 l 2,12,13
EndSplineSet
EndChar

StartChar: uni030B
Encoding: 302 779 302
Width: 0
Flags: W
LayerCount: 2
Fore
SplineSet
-402 602 m 1,0,-1
 -291 747 l 1,1,-1
 -245 708 l 1,2,-1
 -366 571 l 1,3,-1
 -402 602 l 1,0,-1
-243 602 m 1,4,-1
 -132 747 l 1,5,-1
 -86 708 l 1,6,-1
 -207 571 l 1,7,-1
 -243 602 l 1,4,-1
EndSplineSet
EndChar

StartChar: uni030C
Encoding: 303 780 303
Width: 0
Flags: W
LayerCount: 2
Fore
SplineSet
-417 702 m 1,0,-1
 -384 737 l 1,1,-1
 -285 642 l 1,2,-1
 -186 737 l 1,3,-1
 -152 702 l 1,4,-1
 -285 573 l 1,5,-1
 -417 702 l 1,0,-1
EndSplineSet
EndChar

StartChar: uni0326
Encoding: 304 806 304
Width: 0
Flags: W
LayerCount: 2
Fore
SplineSet
-349 -186 m 1,0,-1
 -315 -50 l 1,1,-1
 -258 -50 l 1,2,-1
 -250 -62 l 1,3,-1
 -303 -198 l 1,4,-1
 -349 -186 l 1,0,-1
EndSplineSet
EndChar

StartChar: uni0327
Encoding: 305 807 305
Width: 0
Flags: W
LayerCount: 2
Fore
SplineSet
-394 -132 m 1,0,-1
 -295 -132 l 2,1,2
 -257 -132 -257 -132 -257 -94 c 2,3,-1
 -257 28 l 1,4,-1
 -205 28 l 1,5,-1
 -205 -86 l 2,6,7
 -205 -178 -205 -178 -299 -178 c 2,8,-1
 -367 -178 l 1,9,-1
 -394 -157 l 1,10,-1
 -394 -132 l 1,0,-1
EndSplineSet
EndChar

StartChar: uni0328
Encoding: 306 808 306
Width: 0
Flags: W
LayerCount: 2
Fore
SplineSet
-352 -46 m 2,0,1
 -352 47 -352 47 -259 47 c 2,2,-1
 -234 47 l 1,3,-1
 -234 0 l 1,4,-1
 -263 0 l 2,5,6
 -301 0 -301 0 -301 -38 c 2,7,-1
 -301 -94 l 2,8,9
 -301 -132 -301 -132 -263 -132 c 2,10,-1
 -167 -132 l 1,11,-1
 -167 -157 l 1,12,-1
 -195 -178 l 1,13,-1
 -259 -178 l 2,14,15
 -352 -178 -352 -178 -352 -85 c 2,16,-1
 -352 -46 l 2,0,1
EndSplineSet
EndChar

StartChar: pi
Encoding: 307 960 307
Width: 588
Flags: W
LayerCount: 2
Fore
SplineSet
82 0 m 1,0,-1
 82 518 l 1,1,-1
 505 518 l 1,2,-1
 505 0 l 1,3,-1
 443 0 l 1,4,-1
 443 463 l 1,5,-1
 145 463 l 1,6,-1
 145 0 l 1,7,-1
 82 0 l 1,0,-1
EndSplineSet
EndChar

StartChar: uni1E9E
Encoding: 308 7838 308
Width: 679
Flags: W
LayerCount: 2
Fore
SplineSet
86 0 m 1,0,-1
 86 542 l 2,1,2
 86 690 86 690 235 690 c 2,3,-1
 559 690 l 1,4,-1
 559 636 l 1,5,-1
 375 394 l 1,6,-1
 468 394 l 2,7,8
 616 394 616 394 616 246 c 2,9,-1
 616 148 l 2,10,11
 616 0 616 0 468 0 c 2,12,-1
 308 0 l 1,13,-1
 270 30 l 1,14,-1
 270 60 l 1,15,-1
 471 60 l 2,16,17
 550 60 550 60 550 139 c 2,18,-1
 550 255 l 2,19,20
 550 334 550 334 471 334 c 2,21,-1
 293 334 l 1,22,-1
 293 388 l 1,23,-1
 477 630 l 1,24,-1
 232 630 l 2,25,26
 152 630 152 630 152 551 c 2,27,-1
 152 0 l 1,28,-1
 86 0 l 1,0,-1
EndSplineSet
EndChar

StartChar: endash
Encoding: 309 8211 309
Width: 580
Flags: W
LayerCount: 2
Fore
SplineSet
40 277 m 1,0,-1
 40 333 l 1,1,-1
 540 333 l 1,2,-1
 540 277 l 1,3,-1
 40 277 l 1,0,-1
EndSplineSet
EndChar

StartChar: emdash
Encoding: 310 8212 310
Width: 1000
Flags: W
LayerCount: 2
Fore
SplineSet
40 277 m 1,0,-1
 40 333 l 1,1,-1
 960 333 l 1,2,-1
 960 277 l 1,3,-1
 40 277 l 1,0,-1
EndSplineSet
EndChar

StartChar: quoteleft
Encoding: 311 8216 311
Width: 255
Flags: W
LayerCount: 2
Fore
SplineSet
69 524 m 1,0,-1
 153 747 l 1,1,-1
 200 735 l 1,2,-1
 141 512 l 1,3,-1
 77 512 l 1,4,-1
 69 524 l 1,0,-1
EndSplineSet
EndChar

StartChar: quoteright
Encoding: 312 8217 312
Width: 255
Flags: W
LayerCount: 2
Fore
SplineSet
63 517 m 1,0,-1
 122 740 l 1,1,-1
 187 740 l 1,2,-1
 194 728 l 1,3,-1
 111 505 l 1,4,-1
 63 517 l 1,0,-1
EndSplineSet
EndChar

StartChar: quotesinglbase
Encoding: 313 8218 313
Width: 255
Flags: W
LayerCount: 2
Fore
SplineSet
35 -125 m 1,0,-1
 94 98 l 1,1,-1
 159 98 l 1,2,-1
 166 86 l 1,3,-1
 82 -137 l 1,4,-1
 35 -125 l 1,0,-1
EndSplineSet
EndChar

StartChar: dagger
Encoding: 317 8224 317
Width: 488
Flags: W
LayerCount: 2
Fore
SplineSet
50 427 m 1,0,-1
 50 483 l 1,1,-1
 214 483 l 1,2,-1
 214 690 l 1,3,-1
 273 690 l 1,4,-1
 273 483 l 1,5,-1
 438 483 l 1,6,-1
 438 427 l 1,7,-1
 273 427 l 1,8,-1
 273 -100 l 1,9,-1
 214 -100 l 1,10,-1
 214 427 l 1,11,-1
 50 427 l 1,0,-1
EndSplineSet
EndChar

StartChar: daggerdbl
Encoding: 318 8225 318
Width: 488
Flags: W
LayerCount: 2
Fore
SplineSet
50 107 m 1,0,-1
 50 163 l 1,1,-1
 214 163 l 1,2,-1
 214 427 l 1,3,-1
 50 427 l 1,4,-1
 50 483 l 1,5,-1
 214 483 l 1,6,-1
 214 690 l 1,7,-1
 273 690 l 1,8,-1
 273 483 l 1,9,-1
 438 483 l 1,10,-1
 438 427 l 1,11,-1
 273 427 l 1,12,-1
 273 163 l 1,13,-1
 438 163 l 1,14,-1
 438 107 l 1,15,-1
 273 107 l 1,16,-1
 273 -100 l 1,17,-1
 214 -100 l 1,18,-1
 214 107 l 1,19,-1
 50 107 l 1,0,-1
EndSplineSet
EndChar

StartChar: bullet
Encoding: 319 8226 319
Width: 358
Flags: W
LayerCount: 2
Fore
SplineSet
87 266 m 1,0,-1
 87 454 l 1,1,-1
 271 454 l 1,2,-1
 271 266 l 1,3,-1
 87 266 l 1,0,-1
EndSplineSet
EndChar

StartChar: guilsinglleft
Encoding: 322 8249 322
Width: 286
Flags: W
LayerCount: 2
Fore
SplineSet
30 315 m 1,0,-1
 206 536 l 1,1,-1
 246 502 l 1,2,-1
 102 315 l 1,3,-1
 246 128 l 1,4,-1
 206 94 l 1,5,-1
 30 315 l 1,0,-1
EndSplineSet
EndChar

StartChar: guilsinglright
Encoding: 323 8250 323
Width: 286
Flags: W
LayerCount: 2
Fore
SplineSet
40 128 m 1,0,-1
 184 315 l 1,1,-1
 40 502 l 1,2,-1
 81 536 l 1,3,-1
 256 315 l 1,4,-1
 81 94 l 1,5,-1
 40 128 l 1,0,-1
EndSplineSet
EndChar

StartChar: fraction
Encoding: 324 8260 324
Width: 137
Flags: W
LayerCount: 2
Fore
SplineSet
-120 27 m 1,0,-1
 210 687 l 1,1,-1
 258 663 l 1,2,-1
 -72 3 l 1,3,-1
 -120 27 l 1,0,-1
EndSplineSet
EndChar

StartChar: uni2070
Encoding: 325 8304 325
Width: 358
Flags: W
LayerCount: 2
Fore
SplineSet
42 375 m 2,0,-1
 42 597 l 2,1,2
 42 690 42 690 135 690 c 2,3,-1
 223 690 l 2,4,5
 316 690 316 690 316 597 c 2,6,-1
 316 375 l 2,7,8
 316 282 316 282 223 282 c 2,9,-1
 135 282 l 2,10,11
 42 282 42 282 42 375 c 2,0,-1
93 366 m 2,12,13
 93 328 93 328 131 328 c 2,14,-1
 228 328 l 2,15,16
 266 328 266 328 266 366 c 2,17,-1
 266 606 l 2,18,19
 266 644 266 644 228 644 c 2,20,-1
 131 644 l 2,21,22
 93 644 93 644 93 606 c 2,23,-1
 93 366 l 2,12,13
EndSplineSet
EndChar

StartChar: uni2074
Encoding: 326 8308 326
Width: 358
Flags: W
LayerCount: 2
Fore
SplineSet
42 360 m 1,0,-1
 42 402 l 1,1,-1
 180 690 l 1,2,-1
 224 690 l 1,3,-1
 230 678 l 1,4,-1
 101 406 l 1,5,-1
 266 406 l 1,6,-1
 266 545 l 1,7,-1
 316 545 l 1,8,-1
 316 282 l 1,9,-1
 266 282 l 1,10,-1
 266 360 l 1,11,-1
 42 360 l 1,0,-1
EndSplineSet
EndChar

StartChar: Euro
Encoding: 332 8364 332
Width: 578
Flags: W
LayerCount: 2
Fore
SplineSet
37 252 m 1,0,-1
 37 305 l 1,1,-1
 108 305 l 1,2,-1
 108 385 l 1,3,-1
 37 385 l 1,4,-1
 37 438 l 1,5,-1
 108 438 l 1,6,-1
 108 542 l 2,7,8
 108 690 108 690 256 690 c 2,9,-1
 493 690 l 1,10,-1
 531 660 l 1,11,-1
 531 630 l 1,12,-1
 253 630 l 2,13,14
 174 630 174 630 174 551 c 2,15,-1
 174 438 l 1,16,-1
 457 438 l 1,17,-1
 457 385 l 1,18,-1
 174 385 l 1,19,-1
 174 305 l 1,20,-1
 413 305 l 1,21,-1
 413 252 l 1,22,-1
 174 252 l 1,23,-1
 174 139 l 2,24,25
 174 60 174 60 253 60 c 2,26,-1
 531 60 l 1,27,-1
 531 30 l 1,28,-1
 493 0 l 1,29,-1
 256 0 l 2,30,31
 108 0 108 0 108 148 c 2,32,-1
 108 252 l 1,33,-1
 37 252 l 1,0,-1
EndSplineSet
EndChar

StartChar: uni20BA
Encoding: 333 8378 333
Width: 578
Flags: W
LayerCount: 2
Fore
SplineSet
25 302 m 1,0,-1
 128 343 l 1,1,-1
 128 421 l 1,2,-1
 44 387 l 1,3,-1
 25 437 l 1,4,-1
 128 478 l 1,5,-1
 128 690 l 1,6,-1
 194 690 l 1,7,-1
 194 505 l 1,8,-1
 391 584 l 1,9,-1
 411 534 l 1,10,-1
 194 448 l 1,11,-1
 194 370 l 1,12,-1
 391 449 l 1,13,-1
 411 399 l 1,14,-1
 194 312 l 1,15,-1
 194 60 l 1,16,-1
 284 60 l 2,17,18
 458 60 458 60 458 234 c 2,19,-1
 458 300 l 1,20,-1
 520 300 l 1,21,-1
 520 240 l 2,22,23
 520 0 520 0 280 0 c 2,24,-1
 128 0 l 1,25,-1
 128 286 l 1,26,-1
 44 252 l 1,27,-1
 25 302 l 1,0,-1
EndSplineSet
EndChar

StartChar: uni20BD
Encoding: 334 8381 334
Width: 578
Flags: W
LayerCount: 2
Fore
SplineSet
48 193 m 1,0,-1
 48 244 l 1,1,-1
 98 244 l 1,2,-1
 98 318 l 1,3,-1
 48 318 l 1,4,-1
 48 372 l 1,5,-1
 98 372 l 1,6,-1
 98 690 l 1,7,-1
 372 690 l 2,8,9
 520 690 520 690 520 542 c 2,10,-1
 520 466 l 2,11,12
 520 318 520 318 372 318 c 2,13,-1
 164 318 l 1,14,-1
 164 244 l 1,15,-1
 394 244 l 1,16,-1
 394 193 l 1,17,-1
 164 193 l 1,18,-1
 164 0 l 1,19,-1
 98 0 l 1,20,-1
 98 193 l 1,21,-1
 48 193 l 1,0,-1
164 372 m 1,22,-1
 375 372 l 2,23,24
 454 372 454 372 454 452 c 2,25,-1
 454 551 l 2,26,27
 454 630 454 630 375 630 c 2,28,-1
 164 630 l 1,29,-1
 164 372 l 1,22,-1
EndSplineSet
EndChar

StartChar: trademark
Encoding: 336 8482 336
Width: 778
Flags: W
LayerCount: 2
Fore
SplineSet
20 647 m 1,0,-1
 20 690 l 1,1,-1
 302 690 l 1,2,-1
 302 647 l 1,3,-1
 184 647 l 1,4,-1
 184 342 l 1,5,-1
 137 342 l 1,6,-1
 137 647 l 1,7,-1
 20 647 l 1,0,-1
357 342 m 1,8,-1
 357 690 l 1,9,-1
 420 690 l 1,10,-1
 536 440 l 1,11,-1
 653 690 l 1,12,-1
 716 690 l 1,13,-1
 716 342 l 1,14,-1
 669 342 l 1,15,-1
 669 619 l 1,16,-1
 560 387 l 1,17,-1
 513 387 l 1,18,-1
 404 619 l 1,19,-1
 404 342 l 1,20,-1
 357 342 l 1,8,-1
EndSplineSet
EndChar

StartChar: Omega
Encoding: 337 8486 337
Width: 698
Flags: W
LayerCount: 2
Fore
SplineSet
62 0 m 1,0,-1
 62 60 l 1,1,-1
 206 60 l 1,2,-1
 114 181 l 2,3,4
 82 224 82 224 82 278 c 2,5,-1
 82 542 l 2,6,7
 82 690 82 690 231 690 c 2,8,-1
 467 690 l 2,9,10
 615 690 615 690 615 542 c 2,11,-1
 615 278 l 2,12,13
 615 224 615 224 583 181 c 2,14,-1
 492 60 l 1,15,-1
 635 60 l 1,16,-1
 635 0 l 1,17,-1
 412 0 l 1,18,-1
 412 55 l 1,19,-1
 522 202 l 2,20,21
 549 238 549 238 549 281 c 2,22,-1
 549 551 l 2,23,24
 549 630 549 630 470 630 c 2,25,-1
 228 630 l 2,26,27
 148 630 148 630 148 551 c 2,28,-1
 148 281 l 2,29,30
 148 238 148 238 175 202 c 2,31,-1
 285 55 l 1,32,-1
 285 0 l 1,33,-1
 62 0 l 1,0,-1
EndSplineSet
EndChar

StartChar: estimated
Encoding: 338 8494 338
Width: 880
Flags: W
LayerCount: 2
Fore
SplineSet
60 345 m 128,-1,1
 60 494 60 494 171.5 599.5 c 128,-1,2
 283 705 283 705 440 705 c 128,-1,3
 597 705 597 705 708.5 599.5 c 128,-1,4
 820 494 820 494 820 325 c 1,5,-1
 200 325 l 1,6,-1
 200 127 l 1,7,8
 305 25 305 25 440 25 c 128,-1,9
 575 25 575 25 687 133 c 1,10,-1
 719 100 l 1,11,12
 597 -15 597 -15 440 -15 c 128,-1,13
 283 -15 283 -15 171.5 90.5 c 128,-1,0
 60 196 60 196 60 345 c 128,-1,1
200 365 m 1,14,-1
 680 365 l 1,15,-1
 680 563 l 1,16,17
 575 665 575 665 440 665 c 128,-1,18
 305 665 305 665 200 563 c 1,19,-1
 200 365 l 1,14,-1
EndSplineSet
EndChar

StartChar: partialdiff
Encoding: 339 8706 339
Width: 576
Flags: W
LayerCount: 2
Fore
SplineSet
74 146 m 2,0,-1
 74 308 l 2,1,2
 74 454 74 454 221 454 c 2,3,-1
 435 454 l 1,4,-1
 435 534 l 2,5,6
 435 685 435 685 284 685 c 2,7,-1
 118 685 l 1,8,-1
 118 714 l 1,9,-1
 152 740 l 1,10,-1
 282 740 l 2,11,12
 497 740 497 740 497 525 c 2,13,-1
 497 146 l 2,14,15
 497 0 497 0 351 0 c 2,16,-1
 221 0 l 2,17,18
 74 0 74 0 74 146 c 2,0,-1
137 136 m 2,19,20
 137 55 137 55 218 55 c 2,21,-1
 353 55 l 2,22,23
 435 55 435 55 435 136 c 2,24,-1
 435 399 l 1,25,-1
 218 399 l 2,26,27
 137 399 137 399 137 318 c 2,28,-1
 137 136 l 2,19,20
EndSplineSet
EndChar

StartChar: Delta
Encoding: 340 8710 340
Width: 629
Flags: W
LayerCount: 2
Fore
SplineSet
21 15 m 1,0,-1
 259 690 l 1,1,-1
 370 690 l 1,2,-1
 609 15 l 1,3,-1
 598 0 l 1,4,-1
 31 0 l 1,5,-1
 21 15 l 1,0,-1
104 60 m 1,6,-1
 525 60 l 1,7,-1
 326 630 l 1,8,-1
 303 630 l 1,9,-1
 104 60 l 1,6,-1
EndSplineSet
EndChar

StartChar: product
Encoding: 341 8719 341
Width: 698
Flags: W
LayerCount: 2
Fore
SplineSet
92 -100 m 1,0,-1
 92 690 l 1,1,-1
 605 690 l 1,2,-1
 605 -100 l 1,3,-1
 539 -100 l 1,4,-1
 539 630 l 1,5,-1
 158 630 l 1,6,-1
 158 -100 l 1,7,-1
 92 -100 l 1,0,-1
EndSplineSet
EndChar

StartChar: summation
Encoding: 342 8721 342
Width: 574
Flags: W
LayerCount: 2
Fore
SplineSet
50 -46 m 1,0,-1
 289 295 l 1,1,-1
 50 636 l 1,2,-1
 50 690 l 1,3,-1
 524 690 l 1,4,-1
 524 630 l 1,5,-1
 130 630 l 1,6,-1
 364 295 l 1,7,-1
 130 -40 l 1,8,-1
 524 -40 l 1,9,-1
 524 -100 l 1,10,-1
 50 -100 l 1,11,-1
 50 -46 l 1,0,-1
EndSplineSet
EndChar

StartChar: minus
Encoding: 343 8722 343
Width: 578
Flags: W
LayerCount: 2
Fore
SplineSet
65 307 m 1,0,-1
 65 363 l 1,1,-1
 513 363 l 1,2,-1
 513 307 l 1,3,-1
 65 307 l 1,0,-1
EndSplineSet
EndChar

StartChar: radical
Encoding: 346 8730 346
Width: 570
Flags: W
LayerCount: 2
Fore
SplineSet
20 346 m 1,0,-1
 20 400 l 1,1,-1
 157 400 l 1,2,-1
 270 65 l 1,3,-1
 520 788 l 1,4,-1
 571 770 l 1,5,-1
 298 -10 l 1,6,-1
 239 -10 l 1,7,-1
 116 346 l 1,8,-1
 20 346 l 1,0,-1
EndSplineSet
EndChar

StartChar: infinity
Encoding: 347 8734 347
Width: 609
Flags: W
LayerCount: 2
Fore
SplineSet
42 281 m 2,0,-1
 42 389 l 2,1,2
 42 482 42 482 136 482 c 2,3,-1
 232 482 l 2,4,5
 270 482 270 482 304 448 c 1,6,7
 338 482 338 482 376 482 c 2,8,-1
 473 482 l 2,9,10
 566 482 566 482 566 389 c 2,11,-1
 566 281 l 2,12,13
 566 188 566 188 473 188 c 2,14,-1
 376 188 l 2,15,16
 338 188 338 188 304 222 c 1,17,18
 270 188 270 188 232 188 c 2,19,-1
 136 188 l 2,20,21
 42 188 42 188 42 281 c 2,0,-1
93 272 m 2,22,23
 93 234 93 234 131 234 c 2,24,-1
 241 234 l 2,25,26
 279 234 279 234 279 272 c 2,27,-1
 279 398 l 2,28,29
 279 436 279 436 241 436 c 2,30,-1
 131 436 l 2,31,32
 93 436 93 436 93 398 c 2,33,-1
 93 272 l 2,22,23
330 272 m 2,34,35
 330 234 330 234 368 234 c 2,36,-1
 478 234 l 2,37,38
 516 234 516 234 516 272 c 2,39,-1
 516 398 l 2,40,41
 516 436 516 436 478 436 c 2,42,-1
 368 436 l 2,43,44
 330 436 330 436 330 398 c 2,45,-1
 330 272 l 2,34,35
EndSplineSet
EndChar

StartChar: integral
Encoding: 348 8747 348
Width: 403
Flags: W
LayerCount: 2
Fore
SplineSet
20 -145 m 1,0,-1
 89 -145 l 2,1,2
 170 -145 170 -145 170 -64 c 2,3,-1
 170 594 l 2,4,5
 170 740 170 740 316 740 c 2,6,-1
 349 740 l 1,7,-1
 383 714 l 1,8,-1
 383 685 l 1,9,-1
 314 685 l 2,10,11
 233 685 233 685 233 604 c 2,12,-1
 233 -54 l 2,13,14
 233 -200 233 -200 86 -200 c 2,15,-1
 54 -200 l 1,16,-1
 20 -174 l 1,17,-1
 20 -145 l 1,0,-1
EndSplineSet
EndChar

StartChar: notequal
Encoding: 350 8800 350
Width: 578
Flags: W
LayerCount: 2
Fore
SplineSet
65 197 m 1,0,-1
 65 253 l 1,1,-1
 219 253 l 1,2,-1
 302 417 l 1,3,-1
 65 417 l 1,4,-1
 65 473 l 1,5,-1
 331 473 l 1,6,-1
 396 602 l 1,7,-1
 441 579 l 1,8,-1
 388 473 l 1,9,-1
 513 473 l 1,10,-1
 513 417 l 1,11,-1
 359 417 l 1,12,-1
 276 253 l 1,13,-1
 513 253 l 1,14,-1
 513 197 l 1,15,-1
 247 197 l 1,16,-1
 182 68 l 1,17,-1
 137 91 l 1,18,-1
 190 197 l 1,19,-1
 65 197 l 1,0,-1
EndSplineSet
EndChar

StartChar: lessequal
Encoding: 351 8804 351
Width: 578
Flags: W
LayerCount: 2
Fore
SplineSet
65 0 m 1,0,-1
 65 56 l 1,1,-1
 513 56 l 1,2,-1
 513 0 l 1,3,-1
 65 0 l 1,0,-1
64 308 m 1,4,-1
 64 370 l 1,5,-1
 487 572 l 1,6,-1
 511 522 l 1,7,-1
 120 339 l 1,8,-1
 511 156 l 1,9,-1
 487 105 l 1,10,-1
 64 308 l 1,4,-1
EndSplineSet
EndChar

StartChar: greaterequal
Encoding: 352 8805 352
Width: 578
Flags: W
LayerCount: 2
Fore
SplineSet
65 0 m 1,0,-1
 65 56 l 1,1,-1
 513 56 l 1,2,-1
 513 0 l 1,3,-1
 65 0 l 1,0,-1
67 156 m 1,4,-1
 458 339 l 1,5,-1
 67 522 l 1,6,-1
 91 572 l 1,7,-1
 514 370 l 1,8,-1
 514 308 l 1,9,-1
 91 105 l 1,10,-1
 67 156 l 1,4,-1
EndSplineSet
EndChar

StartChar: lozenge
Encoding: 353 9674 353
Width: 578
Flags: W
LayerCount: 2
Fore
SplineSet
62 345 m 1,0,-1
 260 690 l 1,1,-1
 318 690 l 1,2,-1
 516 345 l 1,3,-1
 318 0 l 1,4,-1
 260 0 l 1,5,-1
 62 345 l 1,0,-1
120 345 m 1,6,-1
 289 51 l 1,7,-1
 458 345 l 1,8,-1
 289 639 l 1,9,-1
 120 345 l 1,6,-1
EndSplineSet
EndChar

StartChar: uniF000
Encoding: 354 61440 354
Width: 700
Flags: W
LayerCount: 2
Fore
SplineSet
50 605 m 1,0,-1
 650 605 l 1,1,-1
 350 85 l 1,2,-1
 50 605 l 1,0,-1
EndSplineSet
EndChar

StartChar: .notdef
Encoding: 357 -1 357
Width: 584
Flags: W
LayerCount: 2
Fore
SplineSet
96 0 m 1,0,-1
 96 740 l 1,1,-1
 487 740 l 1,2,-1
 487 0 l 1,3,-1
 96 0 l 1,0,-1
137 41 m 1,4,-1
 446 41 l 1,5,-1
 446 699 l 1,6,-1
 137 699 l 1,7,-1
 137 41 l 1,4,-1
EndSplineSet
EndChar

StartChar: uni030C.alt
Encoding: 358 -1 358
Width: 0
Flags: W
LayerCount: 2
Fore
SplineSet
-46 595 m 1,0,-1
 -13 758 l 1,1,-1
 39 758 l 1,2,-1
 46 746 l 1,3,-1
 -7 585 l 1,4,-1
 -46 595 l 1,0,-1
EndSplineSet
EndChar

StartChar: uni0326.alt
Encoding: 359 -1 359
Width: 0
Flags: W
LayerCount: 2
Fore
SplineSet
-27 604 m 1,0,-1
 30 740 l 1,1,-1
 75 727 l 1,2,-1
 42 592 l 1,3,-1
 -19 592 l 1,4,-1
 -27 604 l 1,0,-1
EndSplineSet
EndChar

StartChar: uni0300.cap
Encoding: 360 -1 360
Width: 0
Flags: W
LayerCount: 2
Fore
SplineSet
-431 868 m 1,0,-1
 -387 909 l 1,1,-1
 -262 768 l 1,2,-1
 -298 733 l 1,3,-1
 -431 868 l 1,0,-1
EndSplineSet
EndChar

StartChar: uni0301.cap
Encoding: 361 -1 361
Width: 0
Flags: W
LayerCount: 2
Fore
SplineSet
-372 768 m 1,0,-1
 -247 909 l 1,1,-1
 -203 868 l 1,2,-1
 -336 733 l 1,3,-1
 -372 768 l 1,0,-1
EndSplineSet
EndChar

StartChar: uni0302.cap
Encoding: 362 -1 362
Width: 0
Flags: W
LayerCount: 2
Fore
SplineSet
-449 780 m 1,0,-1
 -317 909 l 1,1,-1
 -185 780 l 1,2,-1
 -218 745 l 1,3,-1
 -317 839 l 1,4,-1
 -416 745 l 1,5,-1
 -449 780 l 1,0,-1
EndSplineSet
EndChar

StartChar: uni0303.cap
Encoding: 363 -1 363
Width: 0
Flags: W
LayerCount: 2
Fore
SplineSet
-465 796 m 1,0,-1
 -416 845 l 2,1,2
 -393 868 -393 868 -366 868 c 128,-1,3
 -339 868 -339 868 -316 845 c 2,4,-1
 -286 815 l 2,5,6
 -277 806 -277 806 -268 806 c 128,-1,7
 -259 806 -259 806 -250 815 c 2,8,-1
 -201 864 l 1,9,-1
 -168 831 l 1,10,-1
 -217 782 l 2,11,12
 -240 759 -240 759 -267 759 c 128,-1,13
 -294 759 -294 759 -317 782 c 2,14,-1
 -347 812 l 2,15,16
 -356 821 -356 821 -365 821 c 128,-1,17
 -374 821 -374 821 -383 812 c 2,18,-1
 -432 763 l 1,19,-1
 -465 796 l 1,0,-1
EndSplineSet
EndChar

StartChar: uni0304.cap
Encoding: 364 -1 364
Width: 0
Flags: W
LayerCount: 2
Fore
SplineSet
-442 790 m 1,0,-1
 -442 844 l 1,1,-1
 -192 844 l 1,2,-1
 -192 790 l 1,3,-1
 -442 790 l 1,0,-1
EndSplineSet
EndChar

StartChar: uni0306.cap
Encoding: 365 -1 365
Width: 0
Flags: W
LayerCount: 2
Fore
SplineSet
-438 831 m 2,0,-1
 -438 885 l 1,1,-1
 -392 885 l 1,2,-1
 -392 828 l 2,3,4
 -392 807 -392 807 -371 807 c 2,5,-1
 -263 807 l 2,6,7
 -242 807 -242 807 -242 828 c 2,8,-1
 -242 885 l 1,9,-1
 -196 885 l 1,10,-1
 -196 831 l 2,11,12
 -196 761 -196 761 -266 761 c 2,13,-1
 -368 761 l 2,14,15
 -438 761 -438 761 -438 831 c 2,0,-1
EndSplineSet
EndChar

StartChar: uni0307.cap
Encoding: 366 -1 366
Width: 0
Flags: W
LayerCount: 2
Fore
SplineSet
-350 776 m 1,0,-1
 -350 856 l 1,1,-1
 -284 856 l 1,2,-1
 -284 776 l 1,3,-1
 -350 776 l 1,0,-1
EndSplineSet
EndChar

StartChar: uni0308.cap
Encoding: 367 -1 367
Width: 0
Flags: W
LayerCount: 2
Fore
SplineSet
-438 779 m 1,0,-1
 -438 857 l 1,1,-1
 -370 857 l 1,2,-1
 -370 779 l 1,3,-1
 -438 779 l 1,0,-1
-264 779 m 1,4,-1
 -264 857 l 1,5,-1
 -196 857 l 1,6,-1
 -196 779 l 1,7,-1
 -264 779 l 1,4,-1
EndSplineSet
EndChar

StartChar: uni030A.cap
Encoding: 368 -1 368
Width: 0
Flags: W
LayerCount: 2
Fore
SplineSet
-415 804 m 2,0,-1
 -415 855 l 2,1,2
 -415 924 -415 924 -346 924 c 2,3,-1
 -288 924 l 2,4,5
 -219 924 -219 924 -219 855 c 2,6,-1
 -219 804 l 2,7,8
 -219 735 -219 735 -288 735 c 2,9,-1
 -346 735 l 2,10,11
 -415 735 -415 735 -415 804 c 2,0,-1
-370 798 m 2,12,13
 -370 774 -370 774 -347 774 c 2,14,-1
 -287 774 l 2,15,16
 -263 774 -263 774 -263 798 c 2,17,-1
 -263 861 l 2,18,19
 -263 885 -263 885 -287 885 c 2,20,-1
 -347 885 l 2,21,22
 -370 885 -370 885 -370 861 c 2,23,-1
 -370 798 l 2,12,13
EndSplineSet
EndChar

StartChar: uni030B.cap
Encoding: 369 -1 369
Width: 0
Flags: W
LayerCount: 2
Fore
SplineSet
-434 765 m 1,0,-1
 -323 909 l 1,1,-1
 -278 870 l 1,2,-1
 -398 733 l 1,3,-1
 -434 765 l 1,0,-1
-275 765 m 1,4,-1
 -164 909 l 1,5,-1
 -118 870 l 1,6,-1
 -239 733 l 1,7,-1
 -275 765 l 1,4,-1
EndSplineSet
EndChar

StartChar: uni030C.cap
Encoding: 370 -1 370
Width: 0
Flags: W
LayerCount: 2
Fore
SplineSet
-449 864 m 1,0,-1
 -416 899 l 1,1,-1
 -317 805 l 1,2,-1
 -218 899 l 1,3,-1
 -185 864 l 1,4,-1
 -317 735 l 1,5,-1
 -449 864 l 1,0,-1
EndSplineSet
EndChar

StartChar: zero.zero
Encoding: 371 -1 371
Width: 578
Flags: W
LayerCount: 2
Fore
SplineSet
68 148 m 2,0,-1
 68 542 l 2,1,2
 68 690 68 690 216 690 c 2,3,-1
 362 690 l 2,4,5
 510 690 510 690 510 542 c 2,6,-1
 510 148 l 2,7,8
 510 0 510 0 362 0 c 2,9,-1
 216 0 l 2,10,11
 68 0 68 0 68 148 c 2,0,-1
134 139 m 2,12,13
 134 60 134 60 213 60 c 2,14,-1
 365 60 l 2,15,16
 444 60 444 60 444 139 c 2,17,-1
 444 551 l 2,18,19
 444 630 444 630 365 630 c 2,20,-1
 213 630 l 2,21,22
 134 630 134 630 134 551 c 2,23,-1
 134 139 l 2,12,13
247 287 m 1,24,-1
 247 403 l 1,25,-1
 331 403 l 1,26,-1
 331 287 l 1,27,-1
 247 287 l 1,24,-1
EndSplineSet
EndChar

